<svg xmlns="http://www.w3.org/2000/svg" width="236" height="70" viewBox="0 0 236 70"><path fill="#A6A6A6" d="M227.845 70H8.275C3.714 70 0 66.276 0 61.717V8.27C0 3.71 3.713 0 8.276 0h219.57C232.406 0 236 3.71 236 8.27v53.447c0 4.56-3.72 8.283-8.28 8.283h.125z"/><path d="M234.556 61.718c0 3.703-3 6.703-6.71 6.703H8.276c-3.708 0-6.718-2.998-6.718-6.702V8.268c0-3.7 3.01-6.71 6.718-6.71h219.57c3.712 0 6.71 3.01 6.71 6.71v53.45z"/><g fill="#fff"><path d="M52.724 34.62c-.05-5.64 4.618-8.383 4.83-8.512-2.643-3.855-6.742-4.383-8.182-4.424-3.443-.36-6.78 2.06-8.535 2.06-1.788 0-4.49-2.024-7.398-1.964-3.745.058-7.25 2.226-9.17 5.593-3.966 6.865-1.008 16.954 2.79 22.503 1.9 2.717 4.12 5.752 7.027 5.645 2.844-.117 3.906-1.812 7.338-1.812 3.4 0 4.397 1.813 7.362 1.745 3.05-.05 4.974-2.73 6.808-5.472 2.196-3.114 3.078-6.182 3.113-6.34-.07-.023-5.926-2.257-5.984-9.02zM47.123 18.036c1.53-1.913 2.575-4.515 2.285-7.156-2.214.098-4.983 1.53-6.576 3.403-1.41 1.648-2.67 4.35-2.345 6.892 2.487.183 5.04-1.256 6.636-3.14z"/></g><g fill="#fff"><path d="M93.88 55.132h-3.974l-2.177-6.84H80.16l-2.074 6.84h-3.87l7.498-23.288h4.63l7.533 23.288zm-6.808-9.71l-1.97-6.082c-.208-.622-.6-2.085-1.175-4.388h-.07c-.23.99-.598 2.453-1.105 4.388l-1.935 6.08h6.255zM113.16 46.53c0 2.855-.773 5.112-2.316 6.77-1.383 1.475-3.1 2.21-5.148 2.21-2.21 0-3.8-.794-4.768-2.383h-.07v8.846h-3.73V43.868c0-1.796-.048-3.638-.14-5.53h3.283L100.48 41h.07c1.243-2.005 3.13-3.006 5.665-3.006 1.982 0 3.634.783 4.96 2.348 1.323 1.57 1.986 3.63 1.986 6.187zm-3.802.136c0-1.634-.368-2.982-1.106-4.042-.807-1.106-1.89-1.66-3.248-1.66-.92 0-1.757.31-2.504.917-.75.613-1.24 1.413-1.47 2.404-.114.46-.172.84-.172 1.138v2.8c0 1.22.374 2.25 1.123 3.092.75.84 1.723 1.26 2.92 1.26 1.406 0 2.5-.54 3.283-1.623.783-1.082 1.175-2.51 1.175-4.284zM132.474 46.53c0 2.855-.772 5.112-2.317 6.77-1.38 1.475-3.097 2.21-5.147 2.21-2.21 0-3.8-.794-4.767-2.383h-.068v8.846h-3.732V43.868c0-1.796-.047-3.638-.138-5.53h3.282l.206 2.662h.07c1.242-2.005 3.13-3.006 5.665-3.006 1.98 0 3.633.783 4.96 2.348 1.323 1.57 1.986 3.63 1.986 6.187zm-3.8.136c0-1.634-.37-2.982-1.108-4.042-.807-1.106-1.887-1.66-3.247-1.66-.924 0-1.758.31-2.506.917-.748.613-1.236 1.413-1.467 2.404-.114.46-.173.84-.173 1.138v2.8c0 1.22.374 2.25 1.12 3.092.75.84 1.723 1.26 2.923 1.26 1.405 0 2.498-.54 3.28-1.623.783-1.082 1.176-2.51 1.176-4.284zM154.068 48.602c0 1.98-.687 3.592-2.068 4.836-1.518 1.36-3.63 2.04-6.344 2.04-2.505 0-4.515-.485-6.036-1.452l.865-3.11c1.637.99 3.435 1.487 5.394 1.487 1.404 0 2.497-.318 3.284-.952.783-.633 1.173-1.482 1.173-2.544 0-.945-.32-1.74-.967-2.388-.643-.646-1.716-1.246-3.213-1.8-4.078-1.522-6.115-3.75-6.115-6.68 0-1.914.714-3.484 2.143-4.706 1.425-1.223 3.326-1.835 5.7-1.835 2.12 0 3.88.37 5.285 1.106l-.933 3.04c-1.312-.713-2.796-1.07-4.457-1.07-1.312 0-2.338.322-3.073.967-.622.576-.933 1.278-.933 2.108 0 .92.355 1.682 1.07 2.28.622.554 1.75 1.152 3.387 1.798 2.004.807 3.477 1.75 4.424 2.832.943 1.084 1.414 2.432 1.414 4.044zM166.404 41.14h-4.112v8.153c0 2.073.725 3.11 2.177 3.11.666 0 1.22-.058 1.657-.173l.103 2.833c-.735.275-1.702.414-2.902.414-1.473 0-2.625-.45-3.456-1.347-.827-.9-1.244-2.408-1.244-4.527v-8.465h-2.45v-2.8h2.45v-3.074l3.664-1.106v4.18h4.112v2.8zM184.96 46.597c0 2.58-.738 4.7-2.21 6.357-1.546 1.706-3.597 2.557-6.153 2.557-2.464 0-4.426-.816-5.89-2.45-1.462-1.636-2.193-3.7-2.193-6.186 0-2.603.752-4.734 2.263-6.392 1.507-1.66 3.54-2.488 6.098-2.488 2.464 0 4.447.817 5.944 2.454 1.426 1.59 2.14 3.64 2.14 6.15zm-3.873.122c0-1.55-.33-2.877-1-3.986-.784-1.34-1.9-2.01-3.35-2.01-1.5 0-2.64.67-3.422 2.01-.67 1.11-1.002 2.46-1.002 4.055 0 1.547.332 2.875 1.002 3.983.807 1.34 1.935 2.01 3.387 2.01 1.425 0 2.543-.682 3.35-2.044.69-1.133 1.035-2.475 1.035-4.02zM197.087 41.62c-.37-.067-.762-.102-1.176-.102-1.31 0-2.327.496-3.04 1.487-.623.875-.934 1.98-.934 3.316v8.812h-3.73l.035-11.505c0-1.936-.047-3.698-.14-5.288h3.252l.137 3.212h.102c.393-1.104 1.015-1.993 1.866-2.66.83-.6 1.73-.898 2.697-.898.345 0 .656.024.933.068v3.56zM213.774 45.94c0 .67-.044 1.233-.137 1.693h-11.194c.044 1.66.585 2.927 1.624 3.802.943.783 2.164 1.174 3.66 1.174 1.66 0 3.17-.266 4.53-.796l.584 2.59c-1.588.693-3.465 1.038-5.628 1.038-2.605 0-4.65-.766-6.135-2.298-1.483-1.53-2.228-3.587-2.228-6.168 0-2.533.69-4.642 2.074-6.323 1.45-1.796 3.408-2.693 5.872-2.693 2.42 0 4.252.897 5.496 2.693.986 1.43 1.482 3.193 1.482 5.288zm-3.56-.966c.025-1.106-.218-2.06-.724-2.868-.646-1.037-1.637-1.555-2.974-1.555-1.22 0-2.21.507-2.97 1.522-.622.807-.99 1.774-1.104 2.902h7.773z"/></g><g fill="#fff"><path d="M85.838 17.515c0 2.06-.617 3.61-1.85 4.652-1.144.96-2.768 1.442-4.872 1.442-1.042 0-1.936-.046-2.683-.137V12.22c.974-.16 2.025-.238 3.158-.238 2.004 0 3.515.436 4.533 1.307 1.142.984 1.715 2.392 1.715 4.225zm-1.935.052c0-1.336-.354-2.36-1.06-3.073-.71-.713-1.74-1.07-3.1-1.07-.577 0-1.07.04-1.476.12V22.1c.226.033.64.05 1.24.05 1.402 0 2.486-.39 3.25-1.17.764-.782 1.146-1.92 1.146-3.413zM95.343 18.993c0 .328-.024.605-.068.83h-5.5c.022.816.287 1.438.796 1.868.466.386 1.066.58 1.8.58.816 0 1.558-.13 2.226-.39l.287 1.272c-.78.34-1.702.51-2.767.51-1.278 0-2.283-.377-3.013-1.13-.73-.753-1.094-1.763-1.094-3.03 0-1.245.337-2.28 1.018-3.107.713-.883 1.673-1.324 2.885-1.324 1.188 0 2.088.442 2.7 1.325.486.702.73 1.568.73 2.598zm-1.75-.475c.012-.543-.108-1.013-.355-1.41-.318-.508-.803-.763-1.46-.763-.6 0-1.086.25-1.46.747-.304.397-.485.872-.542 1.426h3.817zM103.048 21.138c0 .767-.282 1.383-.848 1.846-.566.463-1.347.695-2.343.695-.94 0-1.736-.188-2.393-.562l.39-1.358c.634.384 1.307.577 2.02.577.94 0 1.408-.345 1.408-1.036 0-.304-.1-.556-.304-.754-.205-.197-.568-.393-1.087-.585-1.47-.543-2.205-1.334-2.205-2.375 0-.713.272-1.307.814-1.783.542-.475 1.262-.713 2.156-.713.815 0 1.51.165 2.088.497l-.39 1.318c-.532-.316-1.093-.475-1.68-.475-.386 0-.686.09-.902.27-.214.182-.32.413-.32.696 0 .282.112.514.337.694.192.17.565.356 1.12.56 1.425.54 2.138 1.37 2.138 2.488zM111.673 15.48l-.355 1.39c-.465-.225-.996-.34-1.596-.34-.803 0-1.44.27-1.91.808s-.705 1.22-.705 2.046c0 .872.246 1.56.738 2.07.492.51 1.118.764 1.877.764.566 0 1.12-.113 1.663-.34l.255 1.376c-.6.283-1.357.425-2.275.425-1.256 0-2.258-.383-3.004-1.147s-1.118-1.785-1.118-3.064c0-1.28.402-2.33 1.205-3.15.803-.82 1.883-1.23 3.242-1.23.766 0 1.43.13 1.983.39zM120.363 23.508h-1.647l-.135-.95h-.05c-.566.758-1.37 1.137-2.41 1.137-.78 0-1.41-.25-1.885-.748-.43-.452-.644-1.013-.644-1.68 0-1.007.42-1.776 1.266-2.31.843-.53 2.03-.79 3.557-.78v-.153c0-1.086-.57-1.63-1.71-1.63-.814 0-1.532.205-2.153.612l-.372-1.205c.767-.474 1.712-.712 2.83-.712 2.158 0 3.237 1.137 3.237 3.412v3.04c-.002.825.04 1.482.118 1.968zm-1.902-2.835V19.4c-2.024-.034-3.036.52-3.036 1.663 0 .43.118.753.354.968.236.215.535.323.894.323.405 0 .78-.127 1.123-.382.344-.254.555-.578.634-.975.02-.09.03-.197.03-.322zm1.088-8.878l-2.054 2.46h-1.273l1.462-2.46h1.866zM127.815 16.87c-.18-.033-.373-.05-.578-.05-.646 0-1.142.244-1.494.73-.304.43-.458.973-.458 1.63v4.33h-1.835l.017-5.654c0-.95-.02-1.817-.065-2.598h1.593l.068 1.58h.05c.192-.545.5-.98.917-1.308.41-.294.85-.44 1.326-.44.167 0 .32.01.458.032v1.75zM137.39 15.258c-.05.668-.07 1.45-.07 2.343v4.72c0 1.776-.396 3.022-1.188 3.735-.725.656-1.743.984-3.056.984-1.142 0-2.064-.216-2.765-.646l.425-1.41c.69.42 1.47.63 2.34.63 1.62 0 2.428-.873 2.428-2.615v-.8h-.034c-.51.84-1.317 1.257-2.428 1.257-.995 0-1.815-.38-2.46-1.137-.647-.758-.968-1.72-.968-2.886 0-1.324.372-2.393 1.12-3.208.69-.758 1.532-1.137 2.53-1.137 1.12 0 1.924.435 2.41 1.306h.034l.068-1.137h1.613zm-1.905 4.72v-1.46c0-.555-.17-1.03-.52-1.426-.345-.397-.803-.594-1.37-.594-.626 0-1.143.26-1.546.78-.404.52-.606 1.217-.606 2.088 0 .792.188 1.43.564 1.918.386.53.916.797 1.586.797.407 0 .776-.12 1.097-.364.326-.243.558-.574.69-.993.07-.202.105-.452.105-.746zM146.757 23.508h-1.647l-.133-.95h-.05c-.57.758-1.372 1.137-2.41 1.137-.784 0-1.413-.25-1.888-.748-.432-.452-.644-1.013-.644-1.68 0-1.007.42-1.776 1.265-2.31.842-.53 2.028-.79 3.556-.78v-.153c0-1.086-.57-1.63-1.71-1.63-.812 0-1.53.205-2.152.612l-.373-1.205c.77-.474 1.713-.712 2.83-.712 2.16 0 3.238 1.137 3.238 3.412v3.04c0 .825.04 1.482.12 1.968zm-1.9-2.835V19.4c-2.027-.034-3.04.52-3.04 1.663 0 .43.12.753.356.968.236.215.533.323.892.323.407 0 .78-.127 1.124-.382.34-.254.553-.578.63-.975.027-.09.037-.197.037-.322zM151.68 23.508h-1.833V11.472h1.832v12.036zM162.477 19.315c0 1.268-.362 2.31-1.087 3.123-.76.838-1.767 1.257-3.022 1.257-1.213 0-2.177-.402-2.895-1.206-.718-.804-1.077-1.818-1.077-3.04 0-1.278.37-2.325 1.11-3.14.743-.815 1.74-1.222 2.995-1.222 1.214 0 2.185.402 2.923 1.205.702.78 1.054 1.79 1.054 3.022zm-1.904.06c0-.76-.164-1.413-.492-1.958-.382-.66-.932-.988-1.643-.988-.738 0-1.3.328-1.682.987-.328.544-.492 1.208-.492 1.99 0 .762.164 1.414.492 1.96.397.658.95.987 1.665.987.7 0 1.248-.335 1.644-1.004.34-.557.51-1.215.51-1.975zM176.92 18.993c0 .328-.023.605-.067.83h-5.5c.024.816.287 1.438.796 1.868.464.386 1.065.58 1.8.58.813 0 1.555-.13 2.225-.39l.287 1.272c-.783.34-1.702.51-2.77.51-1.277 0-2.282-.377-3.01-1.13-.732-.753-1.094-1.763-1.094-3.03 0-1.245.338-2.28 1.018-3.107.71-.883 1.67-1.324 2.885-1.324 1.187 0 2.09.442 2.698 1.325.49.702.733 1.568.733 2.598zm-1.75-.475c.015-.543-.105-1.013-.355-1.41-.318-.508-.803-.763-1.46-.763-.597 0-1.086.25-1.458.747-.304.397-.485.872-.544 1.426h3.818zM186.748 23.508h-1.832v-4.724c0-1.456-.554-2.184-1.665-2.184-.542 0-.983.2-1.322.6-.338.402-.51.873-.51 1.415v4.894h-1.835v-5.89c0-.726-.02-1.512-.065-2.36h1.61l.085 1.288h.05c.216-.4.534-.732.95-.996.5-.31 1.054-.463 1.666-.463.768 0 1.407.248 1.916.746.636.61.95 1.522.95 2.733v4.938zM201.722 18.993c0 .328-.024.605-.068.83h-5.5c.02.816.287 1.438.796 1.868.465.386 1.063.58 1.798.58.817 0 1.56-.13 2.225-.39l.287 1.272c-.78.34-1.702.51-2.765.51-1.278 0-2.283-.377-3.015-1.13-.728-.753-1.094-1.763-1.094-3.03 0-1.245.338-2.28 1.02-3.107.713-.883 1.674-1.324 2.884-1.324 1.19 0 2.088.442 2.7 1.325.486.702.732 1.568.732 2.598zm-1.75-.475c.01-.543-.11-1.013-.355-1.41-.318-.508-.803-.763-1.46-.763-.6 0-1.087.25-1.463.747-.304.397-.485.872-.54 1.426h3.818zM206.22 23.508h-1.835V11.472h1.835v12.036z"/></g></svg>