<?xml version="1.0" encoding="utf-8"?>
<!-- Generator: Adobe Illustrator 16.0.0, SVG Export Plug-In . SVG Version: 6.00 Build 0)  -->
<!DOCTYPE svg PUBLIC "-//W3C//DTD SVG 1.1//EN" "http://www.w3.org/Graphics/SVG/1.1/DTD/svg11.dtd">
<svg version="1.1" id="Capa_1" xmlns="http://www.w3.org/2000/svg" xmlns:xlink="http://www.w3.org/1999/xlink" x="0px" y="0px"
	 width="202px" height="70px" viewBox="17 0 202 70" enable-background="new 17 0 202 70" xml:space="preserve">
<path fill="#A6A6A6" d="M210.846,70H25.275C20.714,70,17,66.275,17,61.717V8.27C17,3.71,20.713,0,25.276,0h185.57
	C215.406,0,219,3.71,219,8.27v53.447c0,4.561-3.721,8.283-8.279,8.283H210.846z"/>
<path d="M217.557,61.718c0,3.703-3,6.703-6.711,6.703H25.276c-3.708,0-6.718-2.998-6.718-6.702V8.268c0-3.7,3.01-6.71,6.718-6.71
	h185.57c3.713,0,6.711,3.01,6.711,6.71V61.718L217.557,61.718z"/>
<g>
	<path fill="#FFFFFF" d="M54.656,33.911c-0.049-5.472,4.479-8.133,4.686-8.258c-2.564-3.74-6.541-4.252-7.938-4.292
		c-3.34-0.349-6.578,1.998-8.28,1.998c-1.734,0-4.355-1.964-7.177-1.905c-3.633,0.056-7.033,2.159-8.896,5.426
		c-3.848,6.66-0.978,16.447,2.707,21.83c1.843,2.636,3.997,5.58,6.817,5.477c2.759-0.113,3.789-1.758,7.118-1.758
		c3.299,0,4.266,1.758,7.143,1.693c2.958-0.049,4.825-2.648,6.604-5.309c2.13-3.021,2.986-5.998,3.02-6.15
		c-0.067-0.022-5.749-2.19-5.805-8.751L54.656,33.911z M49.223,17.822c1.484-1.856,2.498-4.38,2.217-6.942
		c-2.148,0.095-4.834,1.484-6.38,3.302c-1.368,1.599-2.59,4.219-2.275,6.686C45.197,21.045,47.674,19.649,49.223,17.822
		L49.223,17.822z"/>
</g>
<g>
	<path fill="#FFFFFF" d="M94.582,53.809h-3.855l-2.112-6.635h-7.342l-2.012,6.635h-3.754l7.274-22.591h4.491l7.308,22.591H94.582z
		 M87.977,44.39l-1.911-5.9c-0.202-0.604-0.582-2.022-1.14-4.257h-0.067c-0.223,0.96-0.581,2.38-1.072,4.257l-1.877,5.898h6.068
		V44.39z M113.285,45.465c0,2.769-0.75,4.959-2.247,6.566c-1.342,1.432-3.007,2.145-4.994,2.145c-2.143,0-3.686-0.771-4.625-2.312
		h-0.068v8.581h-3.619V42.882c0-1.742-0.046-3.528-0.136-5.365h3.185l0.203,2.583h0.068c1.206-1.945,3.036-2.916,5.496-2.916
		c1.923,0,3.526,0.76,4.812,2.277C112.644,40.984,113.286,42.983,113.285,45.465L113.285,45.465z M109.597,45.597
		c0-1.585-0.356-2.894-1.072-3.922c-0.783-1.073-1.835-1.61-3.151-1.61c-0.893,0-1.704,0.301-2.429,0.89
		c-0.728,0.595-1.203,1.371-1.426,2.332c-0.11,0.446-0.167,0.815-0.167,1.104v2.716c0,1.185,0.363,2.183,1.089,2.999
		c0.728,0.816,1.672,1.224,2.833,1.224c1.364,0,2.426-0.524,3.186-1.575c0.76-1.05,1.141-2.436,1.141-4.156L109.597,45.597z
		 M132.022,45.465c0,2.769-0.749,4.959-2.248,6.566c-1.339,1.432-3.004,2.145-4.993,2.145c-2.145,0-3.687-0.771-4.624-2.312h-0.066
		v8.581h-3.62V42.882c0-1.742-0.046-3.528-0.135-5.365h3.185l0.199,2.583h0.068c1.205-1.945,3.036-2.916,5.495-2.916
		c1.921,0,3.524,0.76,4.812,2.277C131.378,40.984,132.022,42.983,132.022,45.465L132.022,45.465z M128.335,45.597
		c0-1.585-0.357-2.894-1.074-3.922c-0.783-1.073-1.83-1.61-3.15-1.61c-0.896,0-1.705,0.301-2.432,0.89
		c-0.726,0.595-1.198,1.371-1.423,2.332c-0.109,0.446-0.167,0.815-0.167,1.104v2.716c0,1.185,0.362,2.183,1.086,2.999
		c0.728,0.816,1.672,1.224,2.836,1.224c1.363,0,2.423-0.524,3.182-1.575c0.76-1.05,1.141-2.436,1.141-4.156L128.335,45.597z
		 M152.971,47.474c0,1.922-0.667,3.484-2.007,4.691c-1.472,1.32-3.521,1.98-6.153,1.98c-2.432,0-4.381-0.471-5.856-1.41l0.839-3.017
		c1.589,0.961,3.333,1.442,5.233,1.442c1.362,0,2.422-0.308,3.186-0.923c0.759-0.614,1.138-1.438,1.138-2.468
		c0-0.917-0.311-1.688-0.938-2.316c-0.623-0.627-1.666-1.209-3.117-1.747c-3.956-1.476-5.933-3.638-5.933-6.479
		c0-1.857,0.693-3.38,2.079-4.566c1.383-1.187,3.227-1.78,5.529-1.78c2.057,0,3.765,0.359,5.128,1.073l-0.905,2.95
		c-1.273-0.692-2.713-1.039-4.323-1.039c-1.273,0-2.269,0.312-2.981,0.938c-0.604,0.559-0.905,1.239-0.905,2.045
		c0,0.892,0.344,1.632,1.037,2.213c0.604,0.536,1.698,1.116,3.287,1.743c1.943,0.783,3.372,1.697,4.291,2.747
		c0.915,1.052,1.372,2.36,1.372,3.924V47.474z M164.938,40.236h-3.989v7.908c0,2.012,0.704,3.017,2.112,3.017
		c0.646,0,1.184-0.056,1.607-0.167l0.1,2.748c-0.713,0.267-1.65,0.401-2.814,0.401c-1.43,0-2.547-0.436-3.354-1.307
		c-0.802-0.872-1.206-2.335-1.206-4.391v-8.212h-2.377v-2.718h2.377v-2.981l3.554-1.073v4.054h3.989v2.718L164.938,40.236z
		 M182.938,45.53c0,2.502-0.715,4.559-2.144,6.166c-1.5,1.655-3.49,2.48-5.969,2.48c-2.391,0-4.294-0.791-5.714-2.377
		c-1.418-1.587-2.128-3.589-2.128-6.001c0-2.525,0.729-4.593,2.196-6.201c1.461-1.609,3.433-2.413,5.915-2.413
		c2.39,0,4.314,0.793,5.766,2.381c1.384,1.542,2.076,3.53,2.076,5.967L182.938,45.53z M179.182,45.647
		c0-1.504-0.32-2.791-0.97-3.867c-0.761-1.3-1.843-1.95-3.251-1.95c-1.455,0-2.56,0.65-3.319,1.95
		c-0.65,1.077-0.972,2.388-0.972,3.935c0,1.5,0.321,2.789,0.972,3.864c0.783,1.3,1.878,1.949,3.286,1.949
		c1.383,0,2.467-0.661,3.25-1.983c0.67-1.099,1.004-2.4,1.004-3.899V45.647z M194.703,40.701c-0.358-0.065-0.739-0.1-1.141-0.1
		c-1.271,0-2.258,0.481-2.949,1.443c-0.604,0.849-0.905,1.92-0.905,3.216v8.549h-3.619l0.034-11.16c0-1.879-0.046-3.588-0.137-5.131
		h3.155l0.133,3.116h0.099c0.382-1.07,0.984-1.934,1.811-2.58c0.806-0.582,1.679-0.871,2.617-0.871c0.334,0,0.637,0.022,0.904,0.066
		v3.453L194.703,40.701z M210.891,44.892c0,0.649-0.041,1.196-0.132,1.643h-10.859c0.042,1.61,0.566,2.84,1.575,3.689
		c0.915,0.759,2.099,1.139,3.55,1.139c1.611,0,3.076-0.259,4.396-0.773l0.566,2.513c-1.54,0.672-3.361,1.008-5.46,1.008
		c-2.527,0-4.511-0.744-5.951-2.23c-1.438-1.483-2.162-3.479-2.162-5.983c0-2.457,0.67-4.503,2.013-6.133
		c1.406-1.743,3.306-2.613,5.696-2.613c2.348,0,4.125,0.87,5.332,2.613C210.41,41.149,210.891,42.859,210.891,44.892z
		 M207.438,43.955c0.025-1.073-0.211-1.999-0.701-2.783c-0.628-1.006-1.588-1.508-2.886-1.508c-1.184,0-2.144,0.492-2.881,1.477
		c-0.604,0.782-0.96,1.722-1.072,2.814H207.438L207.438,43.955z"/>
</g>
<g>
	<path fill="#FFFFFF" d="M86.78,17.317c0,1.999-0.598,3.502-1.794,4.513c-1.11,0.931-2.685,1.399-4.726,1.399
		c-1.011,0-1.878-0.045-2.603-0.133V12.18c0.945-0.155,1.964-0.23,3.063-0.23c1.944,0,3.41,0.423,4.397,1.268
		C86.225,14.171,86.781,15.538,86.78,17.317L86.78,17.317z M84.903,17.367c0-1.296-0.343-2.29-1.028-2.981
		c-0.689-0.692-1.688-1.039-3.007-1.039c-0.56,0-1.038,0.039-1.432,0.117v8.3c0.219,0.032,0.621,0.048,1.203,0.048
		c1.36,0,2.412-0.378,3.153-1.135C84.532,19.92,84.903,18.815,84.903,17.367z M96,18.75c0,0.318-0.023,0.587-0.066,0.805h-5.335
		c0.021,0.792,0.279,1.395,0.772,1.812c0.453,0.375,1.035,0.563,1.747,0.563c0.792,0,1.512-0.126,2.16-0.379l0.278,1.234
		c-0.757,0.33-1.651,0.495-2.684,0.495c-1.24,0-2.215-0.366-2.923-1.096c-0.708-0.73-1.062-1.71-1.062-2.94
		c0-1.208,0.328-2.211,0.988-3.014c0.692-0.856,1.624-1.284,2.799-1.284c1.153,0,2.026,0.429,2.619,1.285
		C95.764,16.913,96,17.753,96,18.752V18.75z M94.303,18.29c0.012-0.526-0.104-0.983-0.344-1.368
		c-0.308-0.493-0.779-0.741-1.416-0.741c-0.582,0-1.054,0.243-1.417,0.725c-0.294,0.385-0.47,0.846-0.526,1.383H94.303z
		 M103.476,20.832c0,0.744-0.274,1.341-0.822,1.791c-0.55,0.45-1.307,0.674-2.273,0.674c-0.912,0-1.684-0.182-2.321-0.545
		l0.378-1.318c0.615,0.373,1.268,0.56,1.959,0.56c0.912,0,1.366-0.334,1.366-1.005c0-0.294-0.097-0.539-0.295-0.731
		c-0.199-0.191-0.551-0.381-1.054-0.567c-1.426-0.527-2.139-1.294-2.139-2.304c0-0.691,0.264-1.268,0.79-1.729
		c0.526-0.46,1.225-0.692,2.092-0.692c0.791,0,1.465,0.16,2.025,0.482l-0.379,1.279c-0.515-0.307-1.06-0.461-1.629-0.461
		c-0.374,0-0.666,0.087-0.875,0.262c-0.208,0.176-0.31,0.4-0.31,0.675c0,0.273,0.108,0.499,0.327,0.673
		c0.186,0.165,0.548,0.345,1.087,0.543C102.783,18.941,103.475,19.747,103.476,20.832L103.476,20.832z M111.843,15.342l-0.344,1.349
		c-0.451-0.218-0.967-0.33-1.549-0.33c-0.779,0-1.396,0.262-1.853,0.784c-0.457,0.522-0.684,1.184-0.684,1.984
		c0,0.846,0.238,1.514,0.715,2.009c0.478,0.494,1.085,0.741,1.821,0.741c0.549,0,1.086-0.109,1.613-0.33l0.248,1.334
		c-0.583,0.275-1.317,0.413-2.208,0.413c-1.218,0-2.189-0.372-2.914-1.112c-0.724-0.742-1.084-1.732-1.084-2.973
		s0.389-2.26,1.169-3.056c0.778-0.795,1.826-1.193,3.145-1.193c0.743,0,1.388,0.126,1.924,0.379V15.342z M120.273,23.13h-1.599
		l-0.131-0.921h-0.048c-0.55,0.735-1.329,1.103-2.338,1.103c-0.757,0-1.368-0.242-1.829-0.725c-0.416-0.438-0.625-0.983-0.625-1.63
		c0-0.977,0.407-1.723,1.228-2.241c0.819-0.515,1.971-0.767,3.451-0.757v-0.148c0-1.054-0.553-1.582-1.658-1.582
		c-0.79,0-1.486,0.199-2.089,0.594l-0.361-1.169c0.745-0.459,1.662-0.691,2.745-0.691c2.094,0,3.141,1.104,3.141,3.31v2.949
		c-0.002,0.801,0.039,1.438,0.115,1.909L120.273,23.13z M118.428,20.38v-1.235c-1.963-0.033-2.945,0.505-2.945,1.614
		c0,0.417,0.114,0.73,0.344,0.939c0.229,0.208,0.52,0.313,0.867,0.313c0.393,0,0.757-0.123,1.089-0.37
		c0.335-0.247,0.539-0.561,0.615-0.946c0.02-0.087,0.029-0.191,0.029-0.313L118.428,20.38z M119.483,11.768l-1.992,2.386h-1.234
		l1.417-2.386H119.483L119.483,11.768z M127.502,16.691c-0.175-0.032-0.362-0.049-0.562-0.049c-0.626,0-1.106,0.237-1.448,0.708
		c-0.295,0.417-0.444,0.944-0.444,1.582v4.2h-1.78l0.017-5.485c0-0.921-0.02-1.763-0.062-2.521h1.545l0.065,1.533h0.049
		c0.187-0.528,0.485-0.951,0.889-1.269c0.398-0.286,0.825-0.427,1.287-0.427c0.163,0,0.311,0.01,0.445,0.031v1.698V16.691z
		 M136.792,15.127c-0.05,0.648-0.068,1.407-0.068,2.273v4.579c0,1.723-0.385,2.932-1.153,3.624
		c-0.703,0.636-1.691,0.955-2.964,0.955c-1.108,0-2.003-0.209-2.684-0.627l0.413-1.368c0.669,0.407,1.426,0.611,2.271,0.611
		c1.57,0,2.354-0.847,2.354-2.537v-0.776h-0.033c-0.494,0.815-1.277,1.219-2.354,1.219c-0.966,0-1.762-0.369-2.387-1.103
		c-0.627-0.735-0.939-1.668-0.939-2.8c0-1.285,0.361-2.321,1.087-3.112c0.669-0.736,1.485-1.104,2.454-1.104
		c1.087,0,1.866,0.422,2.338,1.267h0.033l0.065-1.103h1.565L136.792,15.127z M134.942,19.706V18.29c0-0.539-0.165-1-0.504-1.383
		c-0.335-0.385-0.779-0.576-1.328-0.576c-0.608,0-1.109,0.252-1.501,0.756c-0.393,0.504-0.587,1.181-0.587,2.026
		c0,0.769,0.182,1.387,0.546,1.861c0.375,0.514,0.889,0.773,1.539,0.773c0.395,0,0.753-0.116,1.063-0.354
		c0.316-0.235,0.542-0.556,0.67-0.963C134.909,20.234,134.942,19.991,134.942,19.706z M145.878,23.13h-1.599l-0.129-0.921h-0.048
		c-0.553,0.735-1.331,1.103-2.337,1.103c-0.762,0-1.372-0.242-1.833-0.725c-0.418-0.438-0.625-0.983-0.625-1.63
		c0-0.977,0.407-1.723,1.228-2.241c0.817-0.515,1.967-0.767,3.451-0.757v-0.148c0-1.054-0.554-1.582-1.66-1.582
		c-0.787,0-1.483,0.199-2.088,0.594l-0.362-1.169c0.748-0.459,1.663-0.691,2.746-0.691c2.096,0,3.141,1.104,3.141,3.31v2.949
		c0,0.801,0.04,1.438,0.117,1.909L145.878,23.13z M144.035,20.38v-1.235c-1.967-0.033-2.95,0.505-2.95,1.614
		c0,0.417,0.117,0.73,0.346,0.939c0.229,0.208,0.518,0.313,0.865,0.313c0.396,0,0.758-0.123,1.091-0.37
		c0.33-0.247,0.537-0.561,0.61-0.946c0.026-0.087,0.036-0.191,0.036-0.313L144.035,20.38z M150.653,23.13h-1.777V11.455h1.777V23.13
		L150.653,23.13z M161.128,19.063c0,1.23-0.351,2.241-1.054,3.029c-0.738,0.813-1.715,1.219-2.933,1.219
		c-1.177,0-2.111-0.39-2.809-1.169c-0.696-0.78-1.044-1.764-1.044-2.949c0-1.24,0.358-2.255,1.076-3.046
		c0.721-0.791,1.688-1.186,2.905-1.186c1.178,0,2.119,0.391,2.836,1.169c0.681,0.757,1.023,1.736,1.023,2.932L161.128,19.063z
		 M159.281,19.121c0-0.737-0.159-1.371-0.478-1.899c-0.37-0.641-0.904-0.958-1.595-0.958c-0.715,0-1.26,0.318-1.631,0.958
		c-0.318,0.527-0.478,1.172-0.478,1.931c0,0.739,0.159,1.371,0.478,1.901c0.385,0.638,0.922,0.958,1.615,0.958
		c0.679,0,1.211-0.325,1.595-0.974c0.329-0.541,0.495-1.179,0.495-1.916L159.281,19.121z M175.14,18.75
		c0,0.318-0.023,0.587-0.064,0.805h-5.336c0.022,0.792,0.278,1.395,0.771,1.812c0.45,0.375,1.033,0.563,1.746,0.563
		c0.789,0,1.509-0.126,2.158-0.379l0.279,1.234c-0.76,0.33-1.651,0.495-2.688,0.495c-1.239,0-2.214-0.366-2.92-1.096
		c-0.71-0.73-1.062-1.71-1.062-2.94c0-1.208,0.328-2.211,0.988-3.014c0.688-0.856,1.62-1.284,2.798-1.284
		c1.151,0,2.028,0.429,2.617,1.285c0.476,0.681,0.711,1.521,0.711,2.521V18.75z M173.441,18.29c0.016-0.526-0.103-0.983-0.345-1.368
		c-0.308-0.493-0.778-0.741-1.415-0.741c-0.58,0-1.054,0.243-1.416,0.725c-0.294,0.385-0.47,0.846-0.526,1.383H173.441
		L173.441,18.29z M184.674,23.13h-1.777v-4.583c0-1.413-0.538-2.119-1.615-2.119c-0.526,0-0.954,0.194-1.282,0.582
		c-0.328,0.39-0.495,0.847-0.495,1.373v4.748h-1.78v-5.714c0-0.704-0.019-1.467-0.062-2.29h1.562l0.082,1.25h0.049
		c0.21-0.388,0.518-0.71,0.921-0.966c0.485-0.3,1.022-0.449,1.617-0.449c0.745,0,1.364,0.241,1.858,0.724
		c0.616,0.591,0.922,1.476,0.922,2.651v4.791L184.674,23.13z M199.2,18.75c0,0.318-0.023,0.587-0.066,0.805h-5.335
		c0.019,0.792,0.278,1.395,0.771,1.812c0.451,0.375,1.032,0.563,1.744,0.563c0.792,0,1.515-0.126,2.158-0.379l0.278,1.234
		c-0.756,0.33-1.649,0.495-2.682,0.495c-1.24,0-2.215-0.366-2.925-1.096c-0.706-0.73-1.061-1.71-1.061-2.94
		c0-1.208,0.327-2.211,0.989-3.014c0.691-0.856,1.623-1.284,2.797-1.284c1.155,0,2.025,0.429,2.62,1.285
		c0.472,0.681,0.71,1.521,0.71,2.521V18.75z M197.503,18.29c0.01-0.526-0.108-0.983-0.345-1.368
		c-0.31-0.493-0.779-0.741-1.417-0.741c-0.582,0-1.054,0.243-1.42,0.725c-0.293,0.385-0.47,0.846-0.522,1.383H197.503z
		 M203.564,23.13h-1.781V11.455h1.781V23.13z"/>
</g>
</svg>
