<?xml version="1.0" encoding="utf-8"?>
<!-- Generator: Adobe Illustrator 16.0.0, SVG Export Plug-In . SVG Version: 6.00 Build 0)  -->
<!DOCTYPE svg PUBLIC "-//W3C//DTD SVG 1.0//EN" "http://www.w3.org/TR/2001/REC-SVG-20010904/DTD/svg10.dtd">
<svg version="1.0" id="Capa_1" xmlns="http://www.w3.org/2000/svg" xmlns:xlink="http://www.w3.org/1999/xlink" x="0px" y="0px"
	 width="131px" height="100px" viewBox="0 0 131 100" enable-background="new 0 0 131 100" xml:space="preserve">
<g>
	<path fill="#FFFFFF" d="M116.025,44.591V29.469h-11.09v15.122H89.839V55.7h15.097v14.813h11.092V55.7h14.787V44.591H116.025z
		 M76.588,29.163l-12.165,12.17l-12.166-12.17l-8.937,8.941l12.165,12.169l-11.917,11.92l8.937,8.94l11.917-11.921l11.916,11.921
		l8.938-8.94l-11.916-11.92l12.164-12.169L76.588,29.163z M32.535,48.603c0,0,4.021-2.049,4.005-8.332
		c-0.028-10.656-11.707-11.419-11.707-11.419H0.186v42.28h24.955c0,0,12.968,0.959,13.556-11.729
		C38.954,50.866,32.535,48.603,32.535,48.603z M9.428,37.802H23.6c0,0,3.389,0.158,3.389,3.703c0,2.881-3.081,3.703-3.081,3.703
		H9.428V37.802z M26.064,62.182H9.428v-8.023h16.329c0,0,3.389,0.468,3.389,4.012C29.146,61.05,26.064,62.182,26.064,62.182z"/>
</g>
</svg>
