<svg xmlns="http://www.w3.org/2000/svg" xmlns:xlink="http://www.w3.org/1999/xlink" width="202" height="70" viewBox="0 0 202 70"><path d="M201.3 59.43c0 6.087-4.476 9.87-10.566 9.87H11.732C5.64 69.3.7 64.365.7 58.28v-46.56C.7 5.635 5.64.7 11.732.7h179.003c6.09 0 10.566 4.936 10.566 11.02v47.713z"/><path fill="#fff" d="M190.734 70H11.732C5.262 70 0 64.742 0 58.278v-46.56C0 5.26 5.263 0 11.732 0h179.002C197.05 0 202 5.148 202 11.72v47.71c0 6.323-4.528 10.57-11.266 10.57zM11.732 1.398C6.034 1.398 1.4 6.028 1.4 11.718v46.56c0 5.693 4.635 10.324 10.332 10.324h179.002c5.9 0 9.866-3.685 9.866-9.17V11.718c0-5.79-4.333-10.322-9.866-10.322H11.732zM137.79 49.94l-1.507 1.42c-.347.19-.694.413-1.04.57-1.045.475-2.11.594-3.055.594-1.006 0-2.583-.065-4.19-1.227-2.236-1.573-3.213-4.275-3.213-6.63 0-4.878 3.974-7.27 7.216-7.27 1.135 0 2.298.284 3.244.882 1.573 1.037 1.98 2.388 2.206 3.112l-7.404 2.987-2.424.187c.785 3.997 3.493 6.323 6.486 6.323 1.495 0 2.605-.487 3.623-.99 0 .002.205-.105.06.04zm-4.467-7.952c.6-.218.914-.407.914-.845 0-1.256-1.424-2.707-3.12-2.707-1.26 0-3.62.978-3.62 4.376 0 .53.062 1.095.094 1.66l5.733-2.484zM122.31 49.697c0 1.222.22 1.413 1.253 1.508.54.064 1.077.092 1.61.155l-1.166.693h-5.55c.728-.943.853-1.037.853-1.666v-.702l-.012-18.7h-2.45l2.357-1.134h4.504c-.977.565-1.27.91-1.394 2.01l-.006 17.837zM113.703 38.943c.723.593 2.232 1.853 2.232 4.243 0 2.33-1.315 3.427-2.64 4.466-.408.41-.883.853-.883 1.54 0 .694.476 1.072.818 1.353l1.137.877c1.383 1.166 2.644 2.235 2.644 4.406 0 2.96-2.866 5.94-8.283 5.94-4.563 0-6.77-2.17-6.77-4.496 0-1.133.565-2.737 2.428-3.835 1.952-1.192 4.598-1.352 6.014-1.444-.443-.57-.948-1.168-.948-2.142 0-.532.16-.85.315-1.225-.345.033-.692.066-1.007.066-3.34 0-5.228-2.487-5.228-4.94 0-1.446.66-3.05 2.018-4.214 1.795-1.476 3.936-1.73 5.638-1.73h6.49l-2.018 1.137h-1.957zm-2.23 13.962c-.26-.034-.414-.034-.725-.034-.285 0-1.987.063-3.304.504-.697.255-2.712 1.007-2.712 3.24 0 2.23 2.175 3.837 5.54 3.837 3.024 0 4.63-1.446 4.63-3.395-.002-1.603-1.04-2.45-3.43-4.15zm.905-5.976c.728-.726.79-1.73.79-2.3 0-2.26-1.35-5.784-3.967-5.784-.816 0-1.7.41-2.203 1.042-.532.655-.692 1.505-.692 2.323 0 2.107 1.23 5.6 3.935 5.6.79 0 1.64-.384 2.138-.88zM94.18 52.46c-5.007 0-7.685-3.895-7.685-7.42 0-4.117 3.367-7.642 8.156-7.642 4.63 0 7.53 3.62 7.53 7.42 0 3.713-2.866 7.64-8 7.64zm3.937-2.545c.762-1.007.946-2.263.946-3.488 0-2.77-1.322-8.052-5.227-8.052-1.04 0-2.085.405-2.84 1.068-1.23 1.1-1.448 2.483-1.448 3.84 0 3.107 1.537 8.232 5.354 8.232 1.233 0 2.49-.595 3.215-1.6zM77.42 52.46c-5.007 0-7.68-3.895-7.68-7.42 0-4.117 3.367-7.642 8.155-7.642 4.627 0 7.523 3.62 7.523 7.42 0 3.713-2.862 7.64-7.998 7.64zm3.938-2.545c.756-1.007.944-2.263.944-3.488 0-2.77-1.325-8.052-5.227-8.052-1.043 0-2.077.405-2.833 1.068-1.232 1.1-1.45 2.483-1.45 3.84 0 3.107 1.544 8.232 5.354 8.232 1.23 0 2.485-.595 3.212-1.6zM67.738 51.368l-4.222.965c-1.71.27-3.246.507-4.873.507-8.144 0-11.246-5.987-11.246-10.672 0-5.722 4.396-11.026 11.925-11.026 1.593 0 3.126.234 4.522.613 2.213.622 3.247 1.386 3.894 1.835l-2.452 2.326-1.034.23.737-1.173c-1-.974-2.835-2.77-6.318-2.77-4.658 0-8.172 3.535-8.172 8.697 0 5.545 4.013 10.76 10.447 10.76 1.89 0 2.864-.38 3.747-.734v-4.753l-4.457.24 2.363-1.27h6.255l-.765.736c-.207.175-.234.234-.292.47-.03.268-.06 1.12-.06 1.422v3.596zM146.867 50.075v8.01h-1.593V37.703h1.593v2.32c1.037-1.5 2.934-2.69 5.136-2.69 3.95 0 6.61 2.994 6.61 7.73 0 4.706-2.66 7.762-6.61 7.762-2.08 0-3.94-1.07-5.136-2.75zm10.036-5.01c0-3.572-1.864-6.295-5.168-6.295-2.052 0-4.014 1.61-4.867 3.015v6.525c.853 1.407 2.815 3.076 4.867 3.076 3.304 0 5.168-2.746 5.168-6.322zM160.79 52.458V32.074h1.59v20.384h-1.59zM180.256 56.768c.34.15.92.245 1.29.245.975 0 1.653-.398 2.263-1.804l1.16-2.63-6.274-14.878h1.777l5.383 12.893 5.33-12.893h1.802l-7.653 18c-.794 1.855-2.043 2.747-3.76 2.747-.515 0-1.194-.093-1.592-.215l.273-1.467zM175.603 52.413c-.107-.51-.187-.962-.245-1.34-.05-.375-.077-.76-.077-1.15-.546.802-1.32 1.468-2.307 1.993-.99.528-1.928.787-3.218.787-1.552 0-2.756-.38-3.616-1.155-.858-.773-1.29-1.82-1.29-3.144 0-1.323.625-2.396 1.87-3.217 1.245-.825 2.854-1.234 4.846-1.234h3.716V42.12c0-1.057-.36-1.887-1.08-2.49-.723-.602-1.736-.906-3.05-.906-1.2 0-2.175.278-2.917.82-.735.554-1.105 1.24-1.105 2.067h-1.63l-.034-.078c-.06-1.114.452-2.093 1.537-2.936 1.08-.844 2.496-1.268 4.24-1.268 1.735 0 3.14.418 4.2 1.25 1.058.826 1.59 2.018 1.59 3.576v7.28c0 .52.024 1.027.09 1.52.066.492.173.984.316 1.46h-1.837zm-5.653-1.16c1.353 0 2.326-.3 3.32-.898.987-.594 1.66-1.37 2.01-2.306v-2.834h-3.732c-1.426 0-2.606.315-3.535.95-.93.634-1.403 1.402-1.403 2.294 0 .84.3 1.514.893 2.024.596.515 1.41.77 2.447.77z"/><path fill="none" d="M26.595 44.233l5.11-5.104-5.11 5.103-16.31-16.288 16.31 16.29L10.26 60.55l16.335-16.315 5.133 5.126h.003z"/><defs><path id="a" d="M31.704 39.13L11.792 28.194c-.564-.31-1.085-.38-1.507-.25l16.31 16.288 5.11-5.104z"/></defs><clipPath id="b"><use xlink:href="#a" overflow="visible"/></clipPath><path clip-path="url(#b)" fill="#D6FFA1" d="M17.455 44.233l14.25-3.275v3.275zM16.926 44.233l14.778-3.397v.122l-14.25 3.275z"/><path clip-path="url(#b)" fill="#D5FFA1" d="M16.397 44.233l15.307-3.52v.123l-14.778 3.397z"/><path clip-path="url(#b)" fill="#D4FEA1" d="M15.867 44.233l15.837-3.64v.12l-15.307 3.52z"/><path clip-path="url(#b)" fill="#D3FEA1" d="M15.338 44.233l16.366-3.762v.123l-15.837 3.64zM14.81 44.233l16.894-3.884v.12l-16.366 3.763z"/><path clip-path="url(#b)" fill="#D2FDA1" d="M14.28 44.233l17.424-4.005v.12L14.81 44.234z"/><path clip-path="url(#b)" fill="#D1FDA1" d="M13.75 44.233l17.954-4.127v.122L14.28 44.233z"/><path clip-path="url(#b)" fill="#D0FCA2" d="M13.22 44.233l18.484-4.25v.123L13.75 44.233z"/><path clip-path="url(#b)" fill="#CFFCA2" d="M12.69 44.233l19.014-4.37v.12l-18.483 4.25z"/><path clip-path="url(#b)" fill="#CEFCA2" d="M12.162 44.233l19.542-4.492v.123l-19.013 4.37z"/><path clip-path="url(#b)" fill="#CDFBA2" d="M12.123 44.233l-.024-.107 19.604-4.506v.12l-19.542 4.493z"/><path clip-path="url(#b)" fill="#CCFBA2" d="M12.1 44.126l-.028-.116 19.632-4.512v.122z"/><path clip-path="url(#b)" fill="#CBFAA2" d="M12.072 44.01l-.027-.116 19.66-4.518v.122z"/><path clip-path="url(#b)" fill="#CAFAA2" d="M12.045 43.894l-.026-.115 19.684-4.525v.12z"/><path clip-path="url(#b)" fill="#C9FAA2" d="M12.02 43.78l-.028-.117 19.712-4.53v.122z"/><path clip-path="url(#b)" fill="#C9F9A2" d="M11.992 43.663l-.027-.115 19.74-4.537v.123z"/><path clip-path="url(#b)" fill="#C8F9A2" d="M11.965 43.548l-.026-.116 19.764-4.542v.12z"/><path clip-path="url(#b)" fill="#C7F8A2" d="M11.94 43.432l-.028-.115 19.792-4.55v.123z"/><path clip-path="url(#b)" fill="#C6F8A3" d="M11.912 43.317l-.026-.116 19.818-4.554v.122z"/><path clip-path="url(#b)" fill="#C5F8A3" d="M11.886 43.2l-.027-.114 19.844-4.56v.12z"/><path clip-path="url(#b)" fill="#C4F7A3" d="M11.86 43.086l-.028-.116 19.872-4.567v.122z"/><path clip-path="url(#b)" fill="#C3F7A3" d="M11.832 42.97l-.026-.115 19.898-4.574v.123z"/><path clip-path="url(#b)" fill="#C2F6A3" d="M11.806 42.855l-.027-.116 19.924-4.58v.12z"/><path clip-path="url(#b)" fill="#C1F6A3" d="M11.78 42.74l-.028-.116 19.952-4.586v.122z"/><path clip-path="url(#b)" fill="#C0F6A3" d="M11.752 42.624l-.026-.116 19.978-4.592v.122z"/><path clip-path="url(#b)" fill="#BFF5A3" d="M11.726 42.508l-.027-.116 20.004-4.597v.12z"/><path clip-path="url(#b)" fill="#BEF5A3" d="M11.7 42.392l-.027-.115 20.03-4.604v.122z"/><path clip-path="url(#b)" fill="#BDF4A3" d="M11.673 42.277l-.027-.116 20.058-4.61v.123z"/><path clip-path="url(#b)" fill="#BCF4A3" d="M11.646 42.16l-.027-.114 20.084-4.616v.12z"/><path clip-path="url(#b)" fill="#BBF3A4" d="M11.62 42.046l-.027-.116 20.11-4.622v.122z"/><path clip-path="url(#b)" fill="#BAF3A4" d="M11.593 41.93l-.027-.115 20.138-4.63v.123z"/><path clip-path="url(#b)" fill="#B9F3A4" d="M11.566 41.815l-.027-.116 20.164-4.635v.12z"/><path clip-path="url(#b)" fill="#B8F2A4" d="M11.54 41.7l-.027-.116 20.19-4.64v.12z"/><path clip-path="url(#b)" fill="#B7F2A4" d="M11.513 41.584l-.027-.116 20.218-4.647v.123z"/><path clip-path="url(#b)" fill="#B6F1A4" d="M11.486 41.468l-.026-.115L31.704 36.7v.12z"/><path clip-path="url(#b)" fill="#B5F1A4" d="M11.46 41.353l-.027-.116 20.27-4.66v.123z"/><path clip-path="url(#b)" fill="#B4F1A4" d="M11.433 41.237l-.027-.115 20.298-4.666v.122z"/><path clip-path="url(#b)" fill="#B3F0A4" d="M11.406 41.122l-.026-.116 20.324-4.67v.12z"/><path clip-path="url(#b)" fill="#B2F0A4" d="M11.38 41.006l-.027-.116 20.35-4.677v.122z"/><path clip-path="url(#b)" fill="#B2EFA4" d="M11.353 40.89l-.027-.115 20.378-4.684v.123z"/><path clip-path="url(#b)" fill="#B1EFA5" d="M11.326 40.775l-.026-.116 20.404-4.69v.12z"/><path clip-path="url(#b)" fill="#B0EEA5" d="M11.3 40.66l-.027-.116 20.43-4.696v.122z"/><path clip-path="url(#b)" fill="#AFEEA5" d="M11.273 40.544l-.026-.116 20.457-4.702v.122z"/><path clip-path="url(#b)" fill="#AEEEA5" d="M11.247 40.428l-.027-.115 20.484-4.708v.12z"/><path clip-path="url(#b)" fill="#ADEDA5" d="M11.22 40.313l-.027-.116 20.51-4.714v.122z"/><path clip-path="url(#b)" fill="#ACEDA5" d="M11.193 40.197l-.026-.115 20.537-4.72v.12z"/><path clip-path="url(#b)" fill="#ABECA5" d="M11.167 40.082l-.027-.116 20.564-4.726v.12z"/><path clip-path="url(#b)" fill="#AAECA5" d="M11.14 39.966l-.027-.115 20.59-4.732v.122z"/><path clip-path="url(#b)" fill="#A9ECA5" d="M11.113 39.85l-.026-.115 20.617-4.74v.123z"/><path clip-path="url(#b)" fill="#A8EBA5" d="M11.087 39.735l-.027-.115 20.644-4.745v.12z"/><path clip-path="url(#b)" fill="#A7EBA5" d="M11.06 39.62l-.026-.116 20.67-4.75v.12z"/><path clip-path="url(#b)" fill="#A6EAA6" d="M11.034 39.504l-.027-.116 20.697-4.756v.12z"/><path clip-path="url(#b)" fill="#A5EAA6" d="M11.007 39.388l-.027-.115 20.724-4.763v.122z"/><path clip-path="url(#b)" fill="#A4E9A6" d="M10.98 39.273l-.026-.116 20.75-4.77v.123z"/><path clip-path="url(#b)" fill="#A3E9A6" d="M10.954 39.157l-.027-.115 20.777-4.775v.12z"/><path clip-path="url(#b)" fill="#A2E9A6" d="M10.927 39.042l-.027-.116 20.804-4.78v.12z"/><path clip-path="url(#b)" fill="#A1E8A6" d="M10.9 38.926l-.026-.115 20.83-4.787v.122z"/><path clip-path="url(#b)" fill="#A0E8A6" d="M10.874 38.81l-.027-.115 20.857-4.793v.12z"/><path clip-path="url(#b)" fill="#9FE7A6" d="M10.847 38.695l-.026-.115 20.884-4.8v.122z"/><path clip-path="url(#b)" fill="#9EE7A6" d="M10.82 38.58l-.026-.116 20.91-4.806v.122z"/><path clip-path="url(#b)" fill="#9DE6A6" d="M10.794 38.464l-.027-.115 20.937-4.813v.12z"/><path clip-path="url(#b)" fill="#9CE6A6" d="M10.767 38.35l-.026-.117 20.964-4.818v.122z"/><path clip-path="url(#b)" fill="#9BE6A7" d="M10.74 38.233l-.026-.116 20.99-4.824v.122z"/><path clip-path="url(#b)" fill="#9AE5A7" d="M10.714 38.117l-.027-.115 21.017-4.83v.12z"/><path clip-path="url(#b)" fill="#99E5A7" d="M10.687 38.002l-.026-.116 21.044-4.836v.122z"/><path clip-path="url(#b)" fill="#98E4A7" d="M10.66 37.886l-.026-.115 21.07-4.842v.122z"/><path clip-path="url(#b)" fill="#97E4A7" d="M10.634 37.77l-.026-.115 21.096-4.848v.12z"/><path clip-path="url(#b)" fill="#96E3A7" d="M10.608 37.655l-.027-.115 21.124-4.855v.122z"/><path clip-path="url(#b)" fill="#95E3A7" d="M10.58 37.54l-.026-.116 21.15-4.86v.12z"/><path clip-path="url(#b)" fill="#94E3A7" d="M10.554 37.424l-.026-.115 21.176-4.868v.12z"/><path clip-path="url(#b)" fill="#93E2A7" d="M10.528 37.31l-.027-.117 21.204-4.873v.122z"/><path clip-path="url(#b)" fill="#92E2A7" d="M10.5 37.193l-.026-.115 21.23-4.88v.122z"/><path clip-path="url(#b)" fill="#91E1A7" d="M10.474 37.078l-.026-.116 21.256-4.885v.12z"/><path clip-path="url(#b)" fill="#90E1A8" d="M10.448 36.962l-.027-.115 21.284-4.892v.122z"/><path clip-path="url(#b)" fill="#8FE0A8" d="M10.42 36.847l-.025-.116 21.31-4.897v.122z"/><path clip-path="url(#b)" fill="#8EE0A8" d="M10.395 36.73l-.027-.115 21.336-4.903v.12z"/><path clip-path="url(#b)" fill="#8DE0A8" d="M10.368 36.615l-.027-.115 21.364-4.91v.122z"/><path clip-path="url(#b)" fill="#8CDFA8" d="M10.34 36.5l-.025-.116 21.39-4.916v.122z"/><path clip-path="url(#b)" fill="#8BDFA8" d="M10.315 36.384l-.027-.115 21.416-4.923v.12z"/><path clip-path="url(#b)" fill="#8ADEA8" d="M10.288 36.27l-.003-.013v-.11l21.42-4.922v.122z"/><path clip-path="url(#b)" fill="#89DEA8" d="M10.285 36.026l21.42-4.923v.122l-21.42 4.923z"/><path clip-path="url(#b)" fill="#88DDA8" d="M10.285 35.905l21.42-4.923v.12l-21.42 4.924z"/><path clip-path="url(#b)" fill="#87DDA8" d="M10.285 35.783l21.42-4.923v.122l-21.42 4.923z"/><path clip-path="url(#b)" fill="#86DDA8" d="M10.285 35.66l21.402-4.918.017.076v.042l-21.42 4.923z"/><path clip-path="url(#b)" fill="#85DCA9" d="M10.285 35.54l21.375-4.913.027.115-21.402 4.92z"/><path clip-path="url(#b)" fill="#84DCA9" d="M10.285 35.418l21.348-4.907.027.117-21.375 4.913z"/><path clip-path="url(#b)" fill="#83DBA9" d="M10.285 35.296l21.322-4.9.026.115-21.348 4.908z"/><path clip-path="url(#b)" fill="#82DBA9" d="M10.285 35.175L31.58 30.28l.027.116-21.322 4.9z"/><path clip-path="url(#b)" fill="#81DAA9" d="M10.285 35.053l21.27-4.888.025.115-21.295 4.895z"/><path clip-path="url(#b)" fill="#80DAA9" d="M10.285 34.93l21.242-4.88.027.115-21.27 4.888z"/><path clip-path="url(#b)" fill="#7FDAA9" d="M10.285 34.81L31.5 29.934l.027.115-21.242 4.88z"/><path clip-path="url(#b)" fill="#7ED9A9" d="M10.285 34.688l21.19-4.87.025.116-21.215 4.876z"/><path clip-path="url(#b)" fill="#7DD9A9" d="M10.285 34.566l21.162-4.863.027.115-21.19 4.87z"/><path clip-path="url(#b)" fill="#7CD8A9" d="M10.285 34.445l21.135-4.858.027.116-21.162 4.863z"/><path clip-path="url(#b)" fill="#7BD8AA" d="M10.285 34.323l21.11-4.85.025.114-21.135 4.858z"/><path clip-path="url(#b)" fill="#7AD7AA" d="M10.285 34.2l21.082-4.844.027.116-21.11 4.85z"/><path clip-path="url(#b)" fill="#79D7AA" d="M10.285 34.08l21.056-4.84.027.116L10.285 34.2z"/><path clip-path="url(#b)" fill="#78D6AA" d="M10.285 33.958l21.03-4.833.026.115-21.055 4.84z"/><path clip-path="url(#b)" fill="#77D6AA" d="M10.285 33.836l21.002-4.827.027.115-21.03 4.833z"/><path clip-path="url(#b)" fill="#76D6AA" d="M10.285 33.715l20.976-4.82.027.114-21.002 4.826z"/><path clip-path="url(#b)" fill="#75D5AA" d="M10.285 33.593l20.95-4.815.026.116-20.975 4.82z"/><path clip-path="url(#b)" fill="#74D5AA" d="M10.285 33.47l20.922-4.807.027.115-20.95 4.815z"/><path clip-path="url(#b)" fill="#73D4AA" d="M10.285 33.35l20.896-4.803.027.116-20.922 4.808z"/><path clip-path="url(#b)" fill="#72D4AA" d="M10.285 33.228l20.87-4.796.026.115-20.895 4.803z"/><path clip-path="url(#b)" fill="#71D3AA" d="M10.285 33.106l20.843-4.79.026.116-20.87 4.796z"/><path clip-path="url(#b)" fill="#70D3AB" d="M10.285 32.985L31.1 28.2l.028.116-20.843 4.79z"/><path clip-path="url(#b)" fill="#6FD3AB" d="M10.285 32.863l20.79-4.778.026.116-20.815 4.785z"/><path clip-path="url(#b)" fill="#6ED2AB" d="M10.285 32.74l20.763-4.77.026.115-20.79 4.778z"/><path clip-path="url(#b)" fill="#6DD2AB" d="M10.285 32.62l20.736-4.766.028.116-20.763 4.77z"/><path clip-path="url(#b)" fill="#6CD1AB" d="M10.285 32.498l20.38-4.684h.347l.01.04-20.737 4.766z"/><path clip-path="url(#b)" fill="#6BD1AB" d="M10.285 32.376l19.85-4.562h.53l-20.38 4.684z"/><path clip-path="url(#b)" fill="#69D0AB" d="M10.285 32.255l19.32-4.44h.53l-19.85 4.56z"/><path clip-path="url(#b)" fill="#68D0AB" d="M10.285 32.133l18.79-4.32h.53l-19.32 4.442z"/><path clip-path="url(#b)" fill="#67CFAB" d="M10.285 32.01l18.262-4.196h.53l-18.792 4.32z"/><path clip-path="url(#b)" fill="#66CFAB" d="M10.285 31.89l17.732-4.076h.53L10.285 32.01z"/><path clip-path="url(#b)" fill="#65CFAC" d="M10.285 31.768l17.203-3.954h.53L10.284 31.89z"/><path clip-path="url(#b)" fill="#64CEAC" d="M10.285 31.647l16.674-3.833h.528l-17.203 3.954z"/><path clip-path="url(#b)" fill="#63CEAC" d="M10.285 31.525l16.144-3.71h.53l-16.675 3.832z"/><path clip-path="url(#b)" fill="#62CDAC" d="M10.285 31.403l15.615-3.59h.53l-16.145 3.712z"/><path clip-path="url(#b)" fill="#61CDAC" d="M10.285 31.282l15.086-3.468h.53l-15.615 3.59z"/><path clip-path="url(#b)" fill="#60CCAC" d="M10.285 31.16l14.556-3.346h.53l-15.085 3.468z"/><path clip-path="url(#b)" fill="#5FCCAC" d="M10.285 31.038l14.027-3.224h.53L10.284 31.16z"/><path clip-path="url(#b)" fill="#5ECCAC" d="M10.285 30.917l13.498-3.103h.53l-14.028 3.224z"/><path clip-path="url(#b)" fill="#5DCBAC" d="M10.285 30.795l12.968-2.98h.53l-13.498 3.102z"/><path clip-path="url(#b)" fill="#5CCBAC" d="M10.285 30.673l12.44-2.86h.528l-12.968 2.982z"/><path clip-path="url(#b)" fill="#5BCAAC" d="M10.285 30.552l11.91-2.738h.53l-12.44 2.86z"/><path clip-path="url(#b)" fill="#5ACAAD" d="M10.285 30.43l11.38-2.616h.53l-11.91 2.738z"/><path clip-path="url(#b)" fill="#59C9AD" d="M10.285 30.308l10.85-2.494h.53l-11.38 2.616z"/><path clip-path="url(#b)" fill="#58C9AD" d="M10.285 30.187l10.322-2.373h.53l-10.852 2.494z"/><path clip-path="url(#b)" fill="#57C8AD" d="M10.285 30.065l9.793-2.25h.53l-10.323 2.372z"/><path clip-path="url(#b)" fill="#56C8AD" d="M10.285 29.943l9.263-2.13h.53l-9.793 2.252z"/><path clip-path="url(#b)" fill="#55C8AD" d="M10.285 29.822l8.734-2.008h.528l-9.263 2.13z"/><path clip-path="url(#b)" fill="#54C7AD" d="M10.285 29.7l8.205-1.886h.53l-8.735 2.008z"/><path clip-path="url(#b)" fill="#53C7AD" d="M10.285 29.578l7.675-1.764h.53L10.285 29.7z"/><path clip-path="url(#b)" fill="#52C6AD" d="M10.285 29.457l7.146-1.643h.53l-7.675 1.764z"/><path clip-path="url(#b)" fill="#51C6AD" d="M10.285 29.335l6.617-1.52h.53l-7.147 1.642z"/><path clip-path="url(#b)" fill="#50C5AE" d="M10.285 29.213l6.087-1.4h.53l-6.617 1.522z"/><path clip-path="url(#b)" fill="#4FC5AE" d="M10.285 29.092l5.558-1.278h.53l-6.088 1.4z"/><path clip-path="url(#b)" fill="#4EC4AE" d="M10.285 28.97l5.03-1.156h.528l-5.558 1.278z"/><path clip-path="url(#b)" fill="#4DC4AE" d="M10.285 28.848l4.5-1.034h.53l-5.03 1.156z"/><path clip-path="url(#b)" fill="#4CC4AE" d="M10.285 28.727l3.97-.913h.53l-4.5 1.034z"/><path clip-path="url(#b)" fill="#4BC3AE" d="M10.285 28.605l3.44-.79h.53l-3.97.912z"/><path clip-path="url(#b)" fill="#4AC3AE" d="M10.285 28.483l2.91-.67h.53l-3.44.792z"/><path clip-path="url(#b)" fill="#49C2AE" d="M10.285 28.362l2.382-.548h.53l-2.912.67z"/><path clip-path="url(#b)" fill="#48C2AE" d="M10.285 28.24l1.853-.426h.53l-2.383.548z"/><path clip-path="url(#b)" fill="#47C1AE" d="M10.285 28.118l1.323-.304h.53l-1.853.426z"/><path clip-path="url(#b)" fill="#46C1AE" d="M10.285 27.997l.794-.183h.528l-1.323.304z"/><path clip-path="url(#b)" fill="#45C0AF" d="M10.285 27.875l.265-.06h.53l-.795.182z"/><path clip-path="url(#b)" fill="#44C0AF" d="M10.55 27.814l-.265.06v-.06z"/><defs><path id="c" d="M31.73 49.36l6.798-3.732c1.378-.76 1.378-1.996 0-2.753l-6.822-3.747-5.11 5.104 5.135 5.13z"/></defs><clipPath id="d"><use xlink:href="#c" overflow="visible"/></clipPath><path clip-path="url(#d)" fill="#FF7D77" d="M26.722 39.13l-.127.073v-.074z"/><path clip-path="url(#d)" fill="#FF7E77" d="M26.99 39.13l-.395.23v-.157l.127-.074z"/><path clip-path="url(#d)" fill="#FF7F77" d="M27.258 39.13l-.663.386v-.157l.395-.23z"/><path clip-path="url(#d)" fill="#FF8077" d="M27.526 39.13l-.93.543v-.157l.662-.387z"/><path clip-path="url(#d)" fill="#FF8277" d="M27.794 39.13l-1.2.7v-.157l.932-.544z"/><path clip-path="url(#d)" fill="#FF8377" d="M28.062 39.13l-1.467.857v-.157l1.2-.7z"/><path clip-path="url(#d)" fill="#FF8477" d="M28.33 39.13l-1.735 1.013v-.156l1.467-.858z"/><path clip-path="url(#d)" fill="#FF8577" d="M28.6 39.13l-2.005 1.17v-.157l1.735-1.014z"/><path clip-path="url(#d)" fill="#FF8677" d="M28.867 39.13l-2.272 1.327V40.3l2.004-1.17z"/><path clip-path="url(#d)" fill="#FF8777" d="M29.135 39.13l-2.54 1.484v-.157l2.272-1.328z"/><path clip-path="url(#d)" fill="#f87" d="M29.403 39.13l-2.808 1.64v-.156l2.54-1.485z"/><path clip-path="url(#d)" fill="#FF8977" d="M29.67 39.13l-3.075 1.797v-.156l2.808-1.64z"/><path clip-path="url(#d)" fill="#FF8A77" d="M29.94 39.13l-3.345 1.954v-.157l3.076-1.798z"/><path clip-path="url(#d)" fill="#FF8B77" d="M30.207 39.13l-3.612 2.11v-.156l3.344-1.955z"/><path clip-path="url(#d)" fill="#FF8C77" d="M30.476 39.13l-3.88 2.268v-.157l3.61-2.11z"/><path clip-path="url(#d)" fill="#FF8D77" d="M30.744 39.13l-4.15 2.425v-.157l3.882-2.27z"/><path clip-path="url(#d)" fill="#FF8E77" d="M31.012 39.13l-4.417 2.58v-.155l4.15-2.426z"/><path clip-path="url(#d)" fill="#FF8F77" d="M31.28 39.13l-4.685 2.738v-.157l4.417-2.58z"/><path clip-path="url(#d)" fill="#FF9076" d="M31.548 39.13l-4.953 2.895v-.157l4.685-2.74z"/><path clip-path="url(#d)" fill="#FF9176" d="M31.816 39.13l-5.22 3.052v-.157l4.952-2.896z"/><path clip-path="url(#d)" fill="#FF9276" d="M32.084 39.13l-5.49 3.21v-.158l5.222-3.053z"/><path clip-path="url(#d)" fill="#FF9376" d="M32.353 39.13l-5.758 3.365v-.156l5.49-3.21z"/><path clip-path="url(#d)" fill="#FF9476" d="M32.62 39.13l-6.025 3.522v-.157l5.758-3.366z"/><path clip-path="url(#d)" fill="#FF9576" d="M32.89 39.13l-6.295 3.68v-.158l6.026-3.523z"/><path clip-path="url(#d)" fill="#FF9676" d="M33.157 39.13l-6.562 3.836v-.157l6.294-3.68z"/><path clip-path="url(#d)" fill="#FF9776" d="M33.425 39.13l-6.83 3.993v-.157l6.562-3.837z"/><path clip-path="url(#d)" fill="#FF9876" d="M33.693 39.13l-7.098 4.15v-.157l6.83-3.994z"/><path clip-path="url(#d)" fill="#FF9976" d="M33.96 39.13l-7.365 4.306v-.157l7.098-4.15z"/><path clip-path="url(#d)" fill="#FF9A76" d="M34.23 39.13l-7.635 4.463v-.157l7.366-4.307z"/><path clip-path="url(#d)" fill="#FF9B76" d="M34.498 39.13l-7.903 4.62v-.157l7.635-4.464z"/><path clip-path="url(#d)" fill="#FF9C76" d="M34.766 39.13l-8.17 4.777v-.157l7.902-4.62z"/><path clip-path="url(#d)" fill="#FF9D76" d="M35.034 39.13l-8.44 4.933v-.156l8.172-4.778z"/><path clip-path="url(#d)" fill="#FF9E76" d="M35.302 39.13l-8.707 5.09v-.157l8.44-4.934z"/><path clip-path="url(#d)" fill="#FF9F76" d="M35.57 39.13l-8.975 5.247v-.157l8.707-5.09z"/><path clip-path="url(#d)" fill="#FFA076" d="M35.838 39.13l-9.243 5.404v-.157l8.975-5.248z"/><path clip-path="url(#d)" fill="#FFA176" d="M36.107 39.13l-9.512 5.56v-.156l9.243-5.405z"/><path clip-path="url(#d)" fill="#FFA276" d="M36.375 39.13l-9.78 5.717v-.156l9.512-5.56z"/><path clip-path="url(#d)" fill="#FFA376" d="M36.643 39.13l-10.048 5.874v-.157l9.78-5.718z"/><path clip-path="url(#d)" fill="#FFA476" d="M36.91 39.13l-10.315 6.03v-.156l10.048-5.875z"/><path clip-path="url(#d)" fill="#FFA576" d="M37.18 39.13l-10.585 6.188v-.157l10.316-6.03z"/><path clip-path="url(#d)" fill="#FFA676" d="M37.447 39.13l-10.852 6.345v-.157l10.584-6.19z"/><path clip-path="url(#d)" fill="#FFA776" d="M37.715 39.13l-11.12 6.502v-.157l10.852-6.346z"/><path clip-path="url(#d)" fill="#FFA876" d="M37.984 39.13l-11.39 6.658v-.156l11.12-6.503z"/><path clip-path="url(#d)" fill="#FFA976" d="M38.252 39.13l-11.657 6.815v-.157l11.39-6.66z"/><path clip-path="url(#d)" fill="#FFAA75" d="M38.52 39.13L26.595 46.1v-.157l11.657-6.816z"/><path clip-path="url(#d)" fill="#FFAB75" d="M38.788 39.13l-12.193 7.13V46.1L38.52 39.13z"/><path clip-path="url(#d)" fill="#FFAC75" d="M39.056 39.13l-12.46 7.286v-.157l12.192-7.13z"/><path clip-path="url(#d)" fill="#FFAD75" d="M39.324 39.13l-12.73 7.442v-.156l12.462-7.287z"/><path clip-path="url(#d)" fill="#FFAE75" d="M39.428 39.13l.042.07-12.875 7.53v-.158l12.73-7.443z"/><path clip-path="url(#d)" fill="#FFAF75" d="M39.47 39.2l.07.117-12.945 7.57v-.158z"/><path clip-path="url(#d)" fill="#FFB075" d="M39.54 39.317l.067.117-13.012 7.61v-.158z"/><path clip-path="url(#d)" fill="#FFB175" d="M39.607 39.434l.07.117-13.082 7.65v-.157z"/><path clip-path="url(#d)" fill="#FFB275" d="M39.676 39.55l.068.118-13.15 7.688V47.2z"/><path clip-path="url(#d)" fill="#FFB375" d="M39.744 39.668l.068.116-13.217 7.73v-.158z"/><path clip-path="url(#d)" fill="#FFB475" d="M39.812 39.784l.07.117-13.287 7.77v-.157z"/><path clip-path="url(#d)" fill="#FFB575" d="M39.88 39.9l.026.044v.1l-13.31 7.783v-.157z"/><path clip-path="url(#d)" fill="#FFB675" d="M39.906 40.2l-13.283 7.768-.028-.046v-.095l13.31-7.784z"/><path clip-path="url(#d)" fill="#FFB775" d="M39.906 40.357L26.69 48.084l-.067-.116L39.906 40.2z"/><path clip-path="url(#d)" fill="#FFB875" d="M39.906 40.514L26.76 48.2l-.07-.116 13.216-7.727z"/><path clip-path="url(#d)" fill="#FFB975" d="M39.906 40.67l-13.078 7.648-.07-.117 13.148-7.686z"/><path clip-path="url(#d)" fill="#FFBA75" d="M39.906 40.827l-13.01 7.608-.068-.117 13.078-7.648z"/><path clip-path="url(#d)" fill="#FFBB75" d="M39.906 40.984l-12.94 7.568-.07-.117 13.01-7.608z"/><path clip-path="url(#d)" fill="#FFBC75" d="M39.906 41.14L27.033 48.67l-.068-.116 12.94-7.568z"/><path clip-path="url(#d)" fill="#FFBD75" d="M39.906 41.298l-12.804 7.487-.07-.117 12.874-7.527z"/><path clip-path="url(#d)" fill="#FFBE75" d="M39.906 41.454L27.17 48.902l-.068-.117 12.804-7.487z"/><path clip-path="url(#d)" fill="#FFBF75" d="M39.906 41.61L27.24 49.02l-.07-.118 12.736-7.448z"/><path clip-path="url(#d)" fill="#FFC075" d="M39.906 41.768l-12.6 7.367-.067-.116 12.666-7.41z"/><path clip-path="url(#d)" fill="#FFC175" d="M39.906 41.925l-12.53 7.327-.07-.117 12.6-7.367z"/><path clip-path="url(#d)" fill="#FFC275" d="M39.906 42.082l-12.45 7.28h-.016l-.064-.11 12.53-7.327z"/><path clip-path="url(#d)" fill="#FFC375" d="M39.906 42.238l-12.18 7.123h-.27l12.45-7.278z"/><path clip-path="url(#d)" fill="#FFC475" d="M39.906 42.395L27.993 49.36h-.268l12.18-7.122z"/><path clip-path="url(#d)" fill="#FFC574" d="M39.906 42.552l-11.644 6.81h-.27l11.914-6.967z"/><path clip-path="url(#d)" fill="#FFC674" d="M39.906 42.71L28.53 49.36h-.268l11.644-6.808z"/><path clip-path="url(#d)" fill="#FFC774" d="M39.906 42.866L28.798 49.36h-.268l11.376-6.65z"/><path clip-path="url(#d)" fill="#FFC874" d="M39.906 43.022l-10.84 6.34h-.268l11.108-6.496zM39.906 43.18l-10.572 6.18h-.268l10.84-6.338z"/><path clip-path="url(#d)" fill="#FFC974" d="M39.906 43.336L29.602 49.36h-.268l10.572-6.18z"/><path clip-path="url(#d)" fill="#FFCA74" d="M39.906 43.493L29.87 49.36h-.268l10.304-6.024z"/><path clip-path="url(#d)" fill="#FFCB74" d="M39.906 43.65l-9.767 5.71h-.27l10.036-5.867z"/><path clip-path="url(#d)" fill="#FFCC74" d="M39.906 43.806l-9.5 5.555h-.267l9.766-5.71z"/><path clip-path="url(#d)" fill="#FFCD74" d="M39.906 43.963l-9.23 5.398h-.27l9.5-5.554z"/><path clip-path="url(#d)" fill="#FFCE74" d="M39.906 44.12l-8.963 5.24h-.268l9.23-5.397z"/><path clip-path="url(#d)" fill="#FFCF74" d="M39.906 44.277L31.21 49.36h-.267l8.963-5.24z"/><path clip-path="url(#d)" fill="#FFD074" d="M39.906 44.434L31.48 49.36h-.27l8.696-5.083z"/><path clip-path="url(#d)" fill="#FFD174" d="M39.906 44.59l-8.16 4.77h-.267l8.426-4.926z"/><path clip-path="url(#d)" fill="#FFD274" d="M39.906 44.747l-7.89 4.614h-.27l8.16-4.77z"/><path clip-path="url(#d)" fill="#FFD374" d="M39.906 44.904l-7.622 4.457h-.268l7.89-4.613z"/><path clip-path="url(#d)" fill="#FFD474" d="M39.906 45.06l-7.354 4.3h-.268l7.622-4.456z"/><path clip-path="url(#d)" fill="#FFD574" d="M39.906 45.218L32.82 49.36h-.268l7.354-4.3z"/><path clip-path="url(#d)" fill="#FFD674" d="M39.906 45.374l-6.818 3.987h-.268l7.086-4.142z"/><path clip-path="url(#d)" fill="#FFD774" d="M39.906 45.53l-6.55 3.83h-.268l6.818-3.986z"/><path clip-path="url(#d)" fill="#FFD874" d="M39.906 45.688l-6.282 3.673h-.268l6.55-3.83z"/><path clip-path="url(#d)" fill="#FFD974" d="M39.906 45.845l-6.013 3.516h-.27l6.283-3.672z"/><path clip-path="url(#d)" fill="#FFDA74" d="M39.906 46.002l-5.745 3.36h-.267l6.013-3.517z"/><path clip-path="url(#d)" fill="#FFDB74" d="M39.906 46.158L34.43 49.36h-.27l5.746-3.358z"/><path clip-path="url(#d)" fill="#FFDC74" d="M39.906 46.315l-5.21 3.046h-.267l5.476-3.202z"/><path clip-path="url(#d)" fill="#FFDD74" d="M39.906 46.472l-4.94 2.89h-.27l5.21-3.047z"/><path clip-path="url(#d)" fill="#FFDE74" d="M39.906 46.63l-4.673 2.73h-.268l4.94-2.888z"/><path clip-path="url(#d)" fill="#FFDF74" d="M39.906 46.786L35.5 49.36h-.267l4.673-2.73z"/><path clip-path="url(#d)" fill="#FFDF73" d="M39.906 46.943L35.77 49.36h-.27l4.406-2.574z"/><path clip-path="url(#d)" fill="#FFE073" d="M39.906 47.1l-3.868 2.26h-.268l4.136-2.417z"/><path clip-path="url(#d)" fill="#FFE173" d="M39.906 47.256l-3.6 2.105h-.268l3.868-2.26z"/><path clip-path="url(#d)" fill="#FFE273" d="M39.906 47.413l-3.332 1.948h-.268l3.6-2.104z"/><path clip-path="url(#d)" fill="#FFE373" d="M39.906 47.57l-3.064 1.79h-.268l3.332-1.947z"/><path clip-path="url(#d)" fill="#FFE473" d="M39.906 47.727L37.11 49.36h-.268l3.064-1.79z"/><path clip-path="url(#d)" fill="#FFE573" d="M39.906 47.883L37.38 49.36h-.27l2.796-1.633z"/><path clip-path="url(#d)" fill="#FFE673" d="M39.906 48.04l-2.26 1.32h-.267l2.526-1.477z"/><path clip-path="url(#d)" fill="#FFE773" d="M39.906 48.197l-1.99 1.164h-.27l2.26-1.32z"/><path clip-path="url(#d)" fill="#FFE873" d="M39.906 48.354l-1.723 1.007h-.268l1.99-1.163z"/><path clip-path="url(#d)" fill="#FFE973" d="M39.906 48.51l-1.455.85h-.267l1.723-1.006zM39.906 48.667l-1.187.694h-.27l1.456-.85z"/><path clip-path="url(#d)" fill="#FFEA73" d="M39.906 48.824l-.92.537h-.267l1.186-.693z"/><path clip-path="url(#d)" fill="#FFEB73" d="M39.906 48.98l-.65.38h-.27l.92-.536z"/><path clip-path="url(#d)" fill="#FFEC73" d="M39.906 49.138l-.382.223h-.268l.65-.38zM39.524 49.36l.382-.222v.223z"/><defs><path id="e" d="M10.284 27.945c-.606.19-.998.802-.998 1.728L9.29 58.83c0 .916.38 1.52.968 1.72l16.337-16.315-16.31-16.29z"/></defs><clipPath id="f"><use xlink:href="#e" overflow="visible"/></clipPath><path clip-path="url(#f)" fill="#63FFD4" d="M9.286 54.587l17.31-4.48V60.55H9.285zM9.286 54.387l17.31-4.48v.2l-17.31 4.48z"/><path clip-path="url(#f)" fill="#62FED4" d="M9.286 54.187l17.31-4.48v.2l-17.31 4.48z"/><path clip-path="url(#f)" fill="#62FDD3" d="M9.286 53.986l17.31-4.48v.2l-17.31 4.48z"/><path clip-path="url(#f)" fill="#61FCD3" d="M9.286 53.786l17.31-4.48v.2l-17.31 4.48z"/><path clip-path="url(#f)" fill="#61FAD3" d="M9.286 53.586l17.31-4.48v.2l-17.31 4.48z"/><path clip-path="url(#f)" fill="#60F9D2" d="M9.286 53.386l17.31-4.48v.2l-17.31 4.48z"/><path clip-path="url(#f)" fill="#60F8D2" d="M9.286 53.186l17.31-4.48v.2l-17.31 4.48z"/><path clip-path="url(#f)" fill="#5FF7D2" d="M9.286 52.985l17.31-4.48v.2l-17.31 4.48z"/><path clip-path="url(#f)" fill="#5EF6D2" d="M9.286 52.785l17.31-4.48v.2l-17.31 4.48z"/><path clip-path="url(#f)" fill="#5EF5D1" d="M9.286 52.585l17.31-4.48v.2l-17.31 4.48z"/><path clip-path="url(#f)" fill="#5DF4D1" d="M9.286 52.385l17.31-4.48v.2l-17.31 4.48z"/><path clip-path="url(#f)" fill="#5DF3D1" d="M9.286 52.184l17.31-4.48v.2l-17.31 4.48z"/><path clip-path="url(#f)" fill="#5CF2D0" d="M9.286 51.984l17.31-4.48v.2l-17.31 4.48z"/><path clip-path="url(#f)" fill="#5CF0D0" d="M9.286 51.784l17.31-4.48v.2l-17.31 4.48z"/><path clip-path="url(#f)" fill="#5BEFD0" d="M9.286 51.584l17.31-4.48v.2l-17.31 4.48z"/><path clip-path="url(#f)" fill="#5AEECF" d="M9.286 51.383l17.31-4.48v.2l-17.31 4.48z"/><path clip-path="url(#f)" fill="#5AEDCF" d="M9.286 51.183l17.31-4.48v.2l-17.31 4.48z"/><path clip-path="url(#f)" fill="#59ECCF" d="M9.286 50.983l17.31-4.48v.2l-17.31 4.48z"/><path clip-path="url(#f)" fill="#59EBCE" d="M9.286 50.783l17.31-4.48v.2l-17.31 4.48z"/><path clip-path="url(#f)" fill="#58EACE" d="M9.286 50.583l17.31-4.48v.2l-17.31 4.48z"/><path clip-path="url(#f)" fill="#58E9CE" d="M9.286 50.382l17.31-4.48v.2l-17.31 4.48z"/><path clip-path="url(#f)" fill="#57E8CE" d="M9.286 50.182l17.31-4.48v.2l-17.31 4.48z"/><path clip-path="url(#f)" fill="#56E6CD" d="M9.286 49.982l17.31-4.48v.2l-17.31 4.48z"/><path clip-path="url(#f)" fill="#56E5CD" d="M9.286 49.782l17.31-4.48v.2l-17.31 4.48z"/><path clip-path="url(#f)" fill="#55E4CD" d="M9.286 49.58l17.31-4.48v.2l-17.31 4.482z"/><path clip-path="url(#f)" fill="#55E3CC" d="M9.286 49.38l17.31-4.48v.2l-17.31 4.48z"/><path clip-path="url(#f)" fill="#54E2CC" d="M9.286 49.18l17.31-4.48v.2l-17.31 4.48z"/><path clip-path="url(#f)" fill="#54E1CC" d="M9.286 48.98l17.31-4.48v.2l-17.31 4.48z"/><path clip-path="url(#f)" fill="#53E0CB" d="M9.286 48.78l17.31-4.48v.2l-17.31 4.48z"/><path clip-path="url(#f)" fill="#52DFCB" d="M9.286 48.58l17.31-4.48v.2l-17.31 4.48z"/><path clip-path="url(#f)" fill="#52DECB" d="M9.286 48.38l17.31-4.48v.2l-17.31 4.48z"/><path clip-path="url(#f)" fill="#51DCCA" d="M9.286 48.18l17.31-4.48v.2l-17.31 4.48z"/><path clip-path="url(#f)" fill="#51DBCA" d="M9.286 47.98l17.31-4.48v.2l-17.31 4.48z"/><path clip-path="url(#f)" fill="#50DACA" d="M9.286 47.78l17.31-4.48v.2l-17.31 4.48z"/><path clip-path="url(#f)" fill="#50D9CA" d="M9.286 47.58l17.31-4.48v.2l-17.31 4.48z"/><path clip-path="url(#f)" fill="#4FD8C9" d="M9.286 47.38l17.31-4.48v.2l-17.31 4.48z"/><path clip-path="url(#f)" fill="#4ED7C9" d="M9.286 47.18l17.31-4.482v.2l-17.31 4.48z"/><path clip-path="url(#f)" fill="#4ED6C9" d="M9.286 46.978l17.31-4.48v.2l-17.31 4.48z"/><path clip-path="url(#f)" fill="#4DD5C8" d="M9.286 46.778l17.31-4.48v.2l-17.31 4.48z"/><path clip-path="url(#f)" fill="#4DD4C8" d="M9.286 46.578l17.31-4.48v.2l-17.31 4.48z"/><path clip-path="url(#f)" fill="#4CD3C8" d="M9.286 46.378l17.31-4.48v.2l-17.31 4.48z"/><path clip-path="url(#f)" fill="#4CD1C7" d="M9.286 46.177l17.31-4.48v.2l-17.31 4.48z"/><path clip-path="url(#f)" fill="#4BD0C7" d="M9.286 45.977l17.31-4.48v.2l-17.31 4.48z"/><path clip-path="url(#f)" fill="#4ACFC7" d="M9.286 45.777l17.31-4.48v.2l-17.31 4.48z"/><path clip-path="url(#f)" fill="#4ACEC7" d="M9.286 45.577l17.31-4.48v.2l-17.31 4.48z"/><path clip-path="url(#f)" fill="#49CDC6" d="M9.286 45.377l17.31-4.48v.2l-17.31 4.48z"/><path clip-path="url(#f)" fill="#49CCC6" d="M9.286 45.176l17.31-4.48v.2l-17.31 4.48z"/><path clip-path="url(#f)" fill="#48CBC6" d="M9.286 44.976l17.31-4.48v.2l-17.31 4.48z"/><path clip-path="url(#f)" fill="#48CAC5" d="M9.286 44.776l17.31-4.48v.2l-17.31 4.48z"/><path clip-path="url(#f)" fill="#47C9C5" d="M9.286 44.576l17.31-4.48v.2l-17.31 4.48z"/><path clip-path="url(#f)" fill="#47C8C5" d="M9.286 44.375l17.31-4.48v.2l-17.31 4.48z"/><path clip-path="url(#f)" fill="#46C7C4" d="M9.286 44.175l17.31-4.48v.2l-17.31 4.48z"/><path clip-path="url(#f)" fill="#45C6C4" d="M9.286 43.975l17.31-4.48v.2l-17.31 4.48z"/><path clip-path="url(#f)" fill="#45C4C4" d="M9.286 43.775l17.31-4.48v.2l-17.31 4.48z"/><path clip-path="url(#f)" fill="#44C3C4" d="M9.286 43.575l17.31-4.48v.2l-17.31 4.48z"/><path clip-path="url(#f)" fill="#44C2C3" d="M9.286 43.374l17.31-4.48v.2l-17.31 4.48z"/><path clip-path="url(#f)" fill="#43C1C3" d="M9.286 43.174l17.31-4.48v.2l-17.31 4.48z"/><path clip-path="url(#f)" fill="#43C0C3" d="M9.286 42.974l17.31-4.48v.2l-17.31 4.48z"/><path clip-path="url(#f)" fill="#42BFC2" d="M9.286 42.774l17.31-4.48v.2l-17.31 4.48z"/><path clip-path="url(#f)" fill="#42BEC2" d="M9.286 42.573l17.31-4.48v.2l-17.31 4.48z"/><path clip-path="url(#f)" fill="#41BDC2" d="M9.286 42.373l17.31-4.48v.2l-17.31 4.48z"/><path clip-path="url(#f)" fill="#40BCC1" d="M9.286 42.173l17.31-4.48v.2l-17.31 4.48z"/><path clip-path="url(#f)" fill="#40BBC1" d="M9.286 41.973l17.31-4.48v.2l-17.31 4.48z"/><path clip-path="url(#f)" fill="#3FBAC1" d="M9.286 41.772l17.31-4.48v.2l-17.31 4.48z"/><path clip-path="url(#f)" fill="#3FB9C1" d="M9.286 41.572l17.31-4.48v.2l-17.31 4.48z"/><path clip-path="url(#f)" fill="#3EB8C0" d="M9.286 41.372l17.31-4.48v.2l-17.31 4.48z"/><path clip-path="url(#f)" fill="#3EB7C0" d="M9.286 41.172L26.568 36.7l.027.106v.086l-17.31 4.48z"/><path clip-path="url(#f)" fill="#3DB5C0" d="M9.286 40.972l17.233-4.46.048.187L9.286 41.17z"/><path clip-path="url(#f)" fill="#3DB4BF" d="M9.286 40.77l17.184-4.447.05.188-17.234 4.462z"/><path clip-path="url(#f)" fill="#3CB3BF" d="M9.286 40.57l17.136-4.434.048.187L9.286 40.77z"/><path clip-path="url(#f)" fill="#3CB2BF" d="M9.286 40.37l17.087-4.422.05.188L9.285 40.57z"/><path clip-path="url(#f)" fill="#3BB1BF" d="M9.286 40.17l17.038-4.41.05.188L9.285 40.37z"/><path clip-path="url(#f)" fill="#3AB0BE" d="M9.286 39.97l16.99-4.397.048.188-17.038 4.41z"/><path clip-path="url(#f)" fill="#3AAFBE" d="M9.286 39.77l16.94-4.385.05.188-16.99 4.397z"/><path clip-path="url(#f)" fill="#39AEBE" d="M9.286 39.57l16.892-4.372.05.187L9.285 39.77z"/><path clip-path="url(#f)" fill="#39ADBD" d="M9.286 39.37l16.843-4.36.048.188L9.286 39.57z"/><path clip-path="url(#f)" fill="#38ACBD" d="M9.286 39.17L26.08 34.82l.05.188-16.844 4.36z"/><path clip-path="url(#f)" fill="#38ABBD" d="M9.286 38.97l16.746-4.335.05.187L9.285 39.17z"/><path clip-path="url(#f)" fill="#37AABC" d="M9.286 38.77l16.697-4.323.05.188L9.285 38.97z"/><path clip-path="url(#f)" fill="#37A9BC" d="M9.286 38.57l16.65-4.31.047.187L9.286 38.77z"/><path clip-path="url(#f)" fill="#36A8BC" d="M9.286 38.37l16.6-4.298.05.188-16.65 4.31z"/><path clip-path="url(#f)" fill="#36A7BC" d="M9.286 38.168l16.55-4.284.05.188-16.6 4.297z"/><path clip-path="url(#f)" fill="#35A6BB" d="M9.286 37.968l16.503-4.27.047.186-16.55 4.284z"/><path clip-path="url(#f)" fill="#35A5BB" d="M9.286 37.768l16.454-4.26.05.19-16.504 4.27z"/><path clip-path="url(#f)" fill="#34A4BB" d="M9.286 37.568L25.69 33.32l.05.19-16.454 4.258z"/><path clip-path="url(#f)" fill="#33A2BA" d="M9.286 37.367l16.357-4.233.048.187L9.287 37.57z"/><path clip-path="url(#f)" fill="#33A1BA" d="M9.286 37.167l16.308-4.22.05.187-16.358 4.233z"/><path clip-path="url(#f)" fill="#32A0BA" d="M9.286 36.967l16.26-4.21.048.19-16.308 4.22z"/><path clip-path="url(#f)" fill="#329FBA" d="M9.286 36.767l16.21-4.196.05.188-16.26 4.21z"/><path clip-path="url(#f)" fill="#319EB9" d="M9.286 36.566l16.162-4.183.048.188-16.21 4.197z"/><path clip-path="url(#f)" fill="#319DB9" d="M9.286 36.366l16.113-4.17.048.187-16.162 4.183z"/><path clip-path="url(#f)" fill="#309CB9" d="M9.286 36.166l16.064-4.158.05.188-16.114 4.17z"/><path clip-path="url(#f)" fill="#309BB8" d="M9.286 35.966l16.016-4.146.048.188-16.064 4.158z"/><path clip-path="url(#f)" fill="#2F9AB8" d="M9.286 35.766l15.967-4.133.05.187-16.017 4.146z"/><path clip-path="url(#f)" fill="#2F99B8" d="M9.286 35.565l15.918-4.12.05.188-15.968 4.133z"/><path clip-path="url(#f)" fill="#2E98B8" d="M9.286 35.365l15.87-4.108.048.188-15.918 4.12z"/><path clip-path="url(#f)" fill="#2E97B7" d="M9.286 35.165l15.82-4.095.05.187-15.87 4.108z"/><path clip-path="url(#f)" fill="#2D96B7" d="M9.286 34.965l15.772-4.083.05.188-15.822 4.095z"/><path clip-path="url(#f)" fill="#2D95B7" d="M9.286 34.764l15.724-4.07.048.188-15.772 4.083z"/><path clip-path="url(#f)" fill="#2C94B6" d="M9.286 34.564l15.675-4.057.05.188-15.724 4.07z"/><path clip-path="url(#f)" fill="#2B93B6" d="M9.286 34.364l15.626-4.045.05.187-15.676 4.057z"/><path clip-path="url(#f)" fill="#2B92B6" d="M9.286 34.164l15.577-4.032.05.187-15.627 4.044z"/><path clip-path="url(#f)" fill="#2A91B6" d="M9.286 33.963l15.53-4.02.047.19-15.577 4.03z"/><path clip-path="url(#f)" fill="#2A90B5" d="M9.286 33.763l15.48-4.007.05.188-15.53 4.02z"/><path clip-path="url(#f)" fill="#298FB5" d="M9.286 33.563l15.43-3.994.05.186-15.48 4.007z"/><path clip-path="url(#f)" fill="#298EB5" d="M9.286 33.363L24.67 29.38l.047.19-15.43 3.993z"/><path clip-path="url(#f)" fill="#288DB4" d="M9.286 33.163l15.334-3.97.05.188-15.384 3.983z"/><path clip-path="url(#f)" fill="#288CB4" d="M9.286 32.962l15.285-3.956.05.188-15.334 3.97z"/><path clip-path="url(#f)" fill="#278BB4" d="M9.286 32.762l15.237-3.944.048.188-15.284 3.956z"/><path clip-path="url(#f)" fill="#278AB4" d="M9.286 32.562l15.188-3.93.05.186-15.238 3.944z"/><path clip-path="url(#f)" fill="#2689B3" d="M9.286 32.362l15.14-3.92.048.19-15.188 3.93z"/><path clip-path="url(#f)" fill="#2688B3" d="M9.286 32.16l15.09-3.905.05.188-15.14 3.92z"/><path clip-path="url(#f)" fill="#2587B3" d="M9.286 31.96l15.042-3.892.05.187L9.285 32.16z"/><path clip-path="url(#f)" fill="#2586B3" d="M9.286 31.76l14.74-3.815h.27l.032.123L9.286 31.96z"/><path clip-path="url(#f)" fill="#2485B2" d="M9.286 31.56l13.968-3.615h.773L9.287 31.76z"/><path clip-path="url(#f)" fill="#2484B2" d="M9.286 31.36l13.194-3.415h.774L9.286 31.56z"/><path clip-path="url(#f)" fill="#2383B2" d="M9.286 31.16l12.42-3.215h.774L9.286 31.36z"/><path clip-path="url(#f)" fill="#2382B1" d="M9.286 30.96l11.647-3.015h.774L9.287 31.16z"/><path clip-path="url(#f)" fill="#2281B1" d="M9.286 30.76l10.873-2.815h.773L9.286 30.96z"/><path clip-path="url(#f)" fill="#2280B1" d="M9.286 30.56l10.1-2.615h.773L9.285 30.76z"/><path clip-path="url(#f)" fill="#217FB1" d="M9.286 30.36l9.326-2.415h.774l-10.1 2.615z"/><path clip-path="url(#f)" fill="#217EB0" d="M9.286 30.16l8.553-2.215h.772L9.286 30.36z"/><path clip-path="url(#f)" fill="#207DB0" d="M9.286 29.96l7.78-2.015h.773L9.285 30.16z"/><path clip-path="url(#f)" fill="#207CB0" d="M9.286 29.76l7.006-1.815h.773l-7.78 2.014z"/><path clip-path="url(#f)" fill="#1F7BB0" d="M9.286 29.558l6.232-1.613h.774L9.286 29.76z"/><path clip-path="url(#f)" fill="#1F7AAF" d="M9.286 29.358l5.458-1.413h.774l-6.232 1.613z"/><path clip-path="url(#f)" fill="#1E79AF" d="M9.286 29.158l4.685-1.213h.774l-5.458 1.413z"/><path clip-path="url(#f)" fill="#1E78AF" d="M9.286 28.958l3.91-1.013h.775l-4.684 1.213z"/><path clip-path="url(#f)" fill="#1D77AE" d="M9.286 28.757l3.138-.812h.773l-3.91 1.013z"/><path clip-path="url(#f)" fill="#1D76AE" d="M9.286 28.557l2.364-.612h.774l-3.138.812z"/><path clip-path="url(#f)" fill="#1C75AE" d="M9.286 28.357l1.59-.412h.774l-2.364.612z"/><path clip-path="url(#f)" fill="#1C74AE" d="M9.286 28.157l.817-.212h.774l-1.59.412z"/><path clip-path="url(#f)" fill="#1B73AD" d="M9.286 27.957l.044-.012h.773l-.817.212z"/><path clip-path="url(#f)" fill="#1B72AD" d="M9.33 27.945l-.044.012v-.012z"/><defs><path id="g" d="M10.26 60.55c.423.145.955.077 1.532-.24l19.936-10.948-5.133-5.126L10.26 60.55z"/></defs><clipPath id="h"><use xlink:href="#g" overflow="visible"/></clipPath><path clip-path="url(#h)" fill="#F24336" d="M31.728 44.282l-.006-.047h.006z"/><path clip-path="url(#h)" fill="#F14337" d="M31.728 45.502l-.174-1.267h.168l.006.047z"/><path clip-path="url(#h)" fill="#F14338" d="M31.728 46.722l-.34-2.487h.166l.174 1.267z"/><path clip-path="url(#h)" fill="#F04339" d="M31.728 47.942l-.508-3.707h.167l.34 2.487z"/><path clip-path="url(#h)" fill="#EF433A" d="M31.728 49.162l-.676-4.927h.168l.508 3.707z"/><path clip-path="url(#h)" fill="#EF423B" d="M31.728 50.382l-.843-6.147h.167l.676 4.927z"/><path clip-path="url(#h)" fill="#EE423C" d="M31.728 51.602l-1.01-7.367h.167l.843 6.147z"/><path clip-path="url(#h)" fill="#ED423D" d="M31.728 52.82l-1.178-8.585h.168l1.01 7.367z"/><path clip-path="url(#h)" fill="#ED423E" d="M31.728 54.04l-1.345-9.805h.167l1.178 8.586z"/><path clip-path="url(#h)" fill="#EC423F" d="M31.728 55.26l-1.512-11.025h.167l1.345 9.806z"/><path clip-path="url(#h)" fill="#EB4240" d="M31.728 56.48l-1.68-12.245h.168l1.512 11.026z"/><path clip-path="url(#h)" fill="#EB4241" d="M31.728 57.7L29.88 44.236h.168l1.68 12.246z"/><path clip-path="url(#h)" fill="#EA4243" d="M31.728 58.92l-2.014-14.685h.167L31.73 57.7z"/><path clip-path="url(#h)" fill="#E94244" d="M31.728 59.702l-.06.008-2.12-15.475h.166l2.014 14.686z"/><path clip-path="url(#h)" fill="#E94245" d="M31.67 59.71l-.165.023-2.126-15.498h.167z"/><path clip-path="url(#h)" fill="#E84146" d="M31.505 59.733l-.164.022-2.128-15.52h.167z"/><path clip-path="url(#h)" fill="#E74147" d="M31.34 59.755l-.164.023-2.13-15.543h.166z"/><path clip-path="url(#h)" fill="#E74148" d="M31.176 59.778l-.164.022-2.135-15.565h.168z"/><path clip-path="url(#h)" fill="#E64149" d="M31.012 59.8l-.164.023-2.138-15.588h.167z"/><path clip-path="url(#h)" fill="#E5414A" d="M30.848 59.823l-.164.022-2.14-15.61h.166z"/><path clip-path="url(#h)" fill="#E4414B" d="M30.684 59.845l-.165.023-2.145-15.633h.168z"/><path clip-path="url(#h)" fill="#E4414C" d="M30.52 59.868l-.165.022-2.147-15.655h.167z"/><path clip-path="url(#h)" fill="#E3414D" d="M30.355 59.89l-.164.023-2.15-15.678h.168z"/><path clip-path="url(#h)" fill="#E2414E" d="M30.19 59.913l-.163.022-2.154-15.7h.168z"/><path clip-path="url(#h)" fill="#E2414F" d="M30.027 59.935l-.165.022-2.156-15.722h.167z"/><path clip-path="url(#h)" fill="#E14050" d="M29.862 59.957l-.164.023-2.16-15.745h.168z"/><path clip-path="url(#h)" fill="#E04052" d="M29.698 59.98l-.164.022-2.163-15.767h.17z"/><path clip-path="url(#h)" fill="#E04053" d="M29.534 60.002l-.164.023-2.166-15.79h.167z"/><path clip-path="url(#h)" fill="#DF4054" d="M29.37 60.025l-.164.022-2.17-15.812h.168z"/><path clip-path="url(#h)" fill="#DE4055" d="M29.206 60.047l-.165.023-2.17-15.835h.167z"/><path clip-path="url(#h)" fill="#DE4056" d="M29.04 60.07l-.163.022-2.175-15.857h.167z"/><path clip-path="url(#h)" fill="#DD4057" d="M28.877 60.092l-.164.023-2.178-15.88h.167z"/><path clip-path="url(#h)" fill="#DC4058" d="M28.713 60.115l-.164.022-2.183-15.902h.168z"/><path clip-path="url(#h)" fill="#DC4059" d="M28.55 60.137l-.166.023L26.2 44.235h.167z"/><path clip-path="url(#h)" fill="#DB3F5A" d="M28.384 60.16l-.164.022-2.187-15.947h.167z"/><path clip-path="url(#h)" fill="#DA3F5B" d="M28.22 60.182l-.164.023-2.19-15.97h.167z"/><path clip-path="url(#h)" fill="#DA3F5C" d="M28.056 60.205l-.164.022-2.194-15.992h.167z"/><path clip-path="url(#h)" fill="#D93F5D" d="M27.892 60.227l-.165.023-2.196-16.015h.168z"/><path clip-path="url(#h)" fill="#D83F5E" d="M27.727 60.25l-.164.022-2.2-16.037h.168z"/><path clip-path="url(#h)" fill="#D83F5F" d="M27.563 60.272l-.164.022-2.204-16.06h.168z"/><path clip-path="url(#h)" fill="#D73F60" d="M27.4 60.294l-.165.023-2.206-16.082h.166z"/><path clip-path="url(#h)" fill="#D63F61" d="M27.235 60.317l-.165.022-2.208-16.105h.167z"/><path clip-path="url(#h)" fill="#D63F62" d="M27.07 60.34l-.164.022-2.212-16.127h.168z"/><path clip-path="url(#h)" fill="#D53F64" d="M26.906 60.362l-.164.022-2.215-16.15h.167z"/><path clip-path="url(#h)" fill="#D43E65" d="M26.742 60.384l-.164.023-2.218-16.172h.167z"/><path clip-path="url(#h)" fill="#D43E66" d="M26.578 60.407l-.165.022-2.22-16.195h.167z"/><path clip-path="url(#h)" fill="#D33E67" d="M26.413 60.43l-.164.022-2.225-16.217h.167z"/><path clip-path="url(#h)" fill="#D23E68" d="M26.25 60.452l-.165.022-2.227-16.24h.167z"/><path clip-path="url(#h)" fill="#D23E69" d="M26.085 60.474l-.164.023-2.23-16.262h.168z"/><path clip-path="url(#h)" fill="#D13E6A" d="M25.92 60.497l-.164.022-2.233-16.285h.167z"/><path clip-path="url(#h)" fill="#D13E6B" d="M25.756 60.52l-.164.022-2.236-16.307h.167z"/><path clip-path="url(#h)" fill="#D03E6C" d="M25.592 60.542l-.164.022-2.24-16.33h.168z"/><path clip-path="url(#h)" fill="#CF3E6D" d="M25.428 60.564l-.164.023-2.243-16.352h.168z"/><path clip-path="url(#h)" fill="#CF3E6E" d="M25.264 60.587l-.164.022-2.246-16.375h.167z"/><path clip-path="url(#h)" fill="#CE3D6F" d="M25.1 60.61l-.165.022-2.25-16.397h.17z"/><path clip-path="url(#h)" fill="#CD3D70" d="M24.935 60.632l-.164.022-2.25-16.42h.166z"/><path clip-path="url(#h)" fill="#CD3D71" d="M24.77 60.654l-.163.022-2.255-16.44h.167z"/><path clip-path="url(#h)" fill="#CC3D72" d="M24.607 60.676l-.133.02h-.032l-2.258-16.46h.168z"/><path clip-path="url(#h)" fill="#CB3D73" d="M24.275 60.695l-2.258-16.46h.167l2.258 16.46z"/><path clip-path="url(#h)" fill="#CB3D74" d="M24.107 60.695l-2.257-16.46h.167l2.258 16.46z"/><path clip-path="url(#h)" fill="#CA3D75" d="M23.94 60.695l-2.258-16.46h.168l2.257 16.46z"/><path clip-path="url(#h)" fill="#C93D76" d="M23.773 60.695l-2.258-16.46h.167l2.258 16.46z"/><path clip-path="url(#h)" fill="#C93D77" d="M23.605 60.695l-2.257-16.46h.167l2.258 16.46z"/><path clip-path="url(#h)" fill="#C83D78" d="M23.438 60.695l-2.258-16.46h.168l2.257 16.46z"/><path clip-path="url(#h)" fill="#C73C79" d="M23.27 60.695l-2.257-16.46h.167l2.258 16.46z"/><path clip-path="url(#h)" fill="#C73C7B" d="M23.103 60.695l-2.257-16.46h.167l2.258 16.46z"/><path clip-path="url(#h)" fill="#C63C7C" d="M22.936 60.695l-2.257-16.46h.166l2.257 16.46z"/><path clip-path="url(#h)" fill="#C53C7D" d="M22.77 60.695l-2.26-16.46h.17l2.256 16.46z"/><path clip-path="url(#h)" fill="#C53C7E" d="M22.6 60.695l-2.256-16.46h.167l2.26 16.46z"/><path clip-path="url(#h)" fill="#C43C7F" d="M22.434 60.695l-2.257-16.46h.167l2.257 16.46z"/><path clip-path="url(#h)" fill="#C33C80" d="M22.267 60.695l-2.258-16.46h.167l2.257 16.46z"/><path clip-path="url(#h)" fill="#C33C81" d="M22.1 60.695l-2.258-16.46h.167l2.257 16.46z"/><path clip-path="url(#h)" fill="#C23C82" d="M21.932 60.695l-2.257-16.46h.167l2.257 16.46z"/><path clip-path="url(#h)" fill="#C13C83" d="M21.765 60.695l-2.258-16.46h.168l2.257 16.46z"/><path clip-path="url(#h)" fill="#C13B84" d="M21.598 60.695l-2.258-16.46h.167l2.258 16.46z"/><path clip-path="url(#h)" fill="#C03B85" d="M21.43 60.695l-2.257-16.46h.167l2.258 16.46z"/><path clip-path="url(#h)" fill="#C03B86" d="M21.263 60.695l-2.258-16.46h.168l2.257 16.46z"/><path clip-path="url(#h)" fill="#BF3B87" d="M21.096 60.695l-2.258-16.46h.167l2.258 16.46z"/><path clip-path="url(#h)" fill="#BE3B88" d="M20.928 60.695l-2.257-16.46h.168l2.258 16.46z"/><path clip-path="url(#h)" fill="#BE3B89" d="M20.76 60.695l-2.257-16.46h.168l2.258 16.46z"/><path clip-path="url(#h)" fill="#BD3B8A" d="M20.594 60.695l-2.258-16.46h.167l2.258 16.46z"/><path clip-path="url(#h)" fill="#BC3B8B" d="M20.426 60.695l-2.257-16.46h.166l2.258 16.46z"/><path clip-path="url(#h)" fill="#BC3B8C" d="M20.26 60.695L18 44.235h.17l2.256 16.46z"/><path clip-path="url(#h)" fill="#BB3B8D" d="M20.092 60.695l-2.258-16.46H18l2.26 16.46z"/><path clip-path="url(#h)" fill="#BA3A8E" d="M19.924 60.695l-2.257-16.46h.167l2.258 16.46z"/><path clip-path="url(#h)" fill="#BA3A8F" d="M19.757 60.695L17.5 44.235h.167l2.257 16.46z"/><path clip-path="url(#h)" fill="#B93A90" d="M19.59 60.695l-2.258-16.46h.167l2.257 16.46z"/><path clip-path="url(#h)" fill="#B83A91" d="M19.422 60.695l-2.257-16.46h.167l2.258 16.46z"/><path clip-path="url(#h)" fill="#B83A92" d="M19.255 60.695l-2.258-16.46h.168l2.257 16.46z"/><path clip-path="url(#h)" fill="#B73A93" d="M19.088 60.695l-2.258-16.46h.167l2.258 16.46z"/><path clip-path="url(#h)" fill="#B73A94" d="M18.92 60.695l-2.257-16.46h.167l2.258 16.46z"/><path clip-path="url(#h)" fill="#B63A95" d="M18.753 60.695l-2.257-16.46h.167l2.257 16.46z"/><path clip-path="url(#h)" fill="#B53A96" d="M18.586 60.695l-2.258-16.46h.168l2.257 16.46z"/><path clip-path="url(#h)" fill="#B53A97" d="M18.418 60.695l-2.257-16.46h.168l2.258 16.46z"/><path clip-path="url(#h)" fill="#B43998" d="M18.25 60.695l-2.256-16.46h.167l2.258 16.46z"/><path clip-path="url(#h)" fill="#B33999" d="M18.084 60.695l-2.258-16.46h.168l2.257 16.46z"/><path clip-path="url(#h)" fill="#B3399A" d="M17.916 60.695l-2.257-16.46h.166l2.258 16.46z"/><path clip-path="url(#h)" fill="#B2399B" d="M17.75 60.695l-2.258-16.46h.167l2.256 16.46z"/><path clip-path="url(#h)" fill="#B2399C" d="M17.582 60.695l-2.258-16.46h.168l2.257 16.46z"/><path clip-path="url(#h)" fill="#B1399D" d="M17.415 60.695l-2.258-16.46h.167l2.258 16.46z"/><path clip-path="url(#h)" fill="#B0399E" d="M17.247 60.695l-2.257-16.46h.167l2.258 16.46z"/><path clip-path="url(#h)" fill="#B0399F" d="M17.08 60.695l-2.258-16.46h.168l2.257 16.46z"/><path clip-path="url(#h)" fill="#AF39A0" d="M16.913 60.695l-2.258-16.46h.167l2.258 16.46z"/><path clip-path="url(#h)" fill="#AE39A1" d="M16.745 60.695l-2.257-16.46h.167l2.258 16.46z"/><path clip-path="url(#h)" fill="#AE38A2" d="M16.578 60.695l-2.258-16.46h.168l2.257 16.46z"/><path clip-path="url(#h)" fill="#AD38A3" d="M16.41 60.695l-2.257-16.46h.167l2.258 16.46z"/><path clip-path="url(#h)" fill="#AC38A4" d="M16.243 60.695l-2.257-16.46h.167l2.258 16.46z"/><path clip-path="url(#h)" fill="#AC38A5" d="M16.076 60.695l-2.258-16.46h.168l2.257 16.46z"/><path clip-path="url(#h)" fill="#AB38A6" d="M15.91 60.695l-2.26-16.46h.168l2.258 16.46z"/><path clip-path="url(#h)" fill="#AB38A7" d="M15.74 60.695l-2.256-16.46h.167l2.26 16.46z"/><path clip-path="url(#h)" fill="#AA38A8" d="M15.574 60.695l-2.258-16.46h.168l2.257 16.46z"/><path clip-path="url(#h)" fill="#A938A9" d="M15.407 60.695l-2.258-16.46h.166l2.258 16.46z"/><path clip-path="url(#h)" fill="#A938AA" d="M15.24 60.695l-2.258-16.46h.167l2.257 16.46z"/><path clip-path="url(#h)" fill="#A838AB" d="M15.072 60.695L12.815 44.24l.028-.005h.14l2.256 16.46z"/><path clip-path="url(#h)" fill="#A838AC" d="M14.905 60.695L12.65 44.262l.165-.023 2.257 16.455z"/><path clip-path="url(#h)" fill="#A737AD" d="M14.737 60.695l-2.25-16.41.164-.023 2.255 16.433z"/><path clip-path="url(#h)" fill="#A637AE" d="M14.57 60.695l-2.248-16.388.165-.023 2.25 16.41z"/><path clip-path="url(#h)" fill="#A637AF" d="M14.403 60.695L12.158 44.33l.164-.023 2.248 16.388z"/><path clip-path="url(#h)" fill="#A537B0" d="M14.235 60.695l-2.24-16.343.163-.023 2.245 16.365z"/><path clip-path="url(#h)" fill="#A437B1" d="M14.068 60.695l-2.238-16.32.164-.023 2.24 16.343z"/><path clip-path="url(#h)" fill="#A437B2" d="M13.9 60.695l-2.235-16.3.165-.02 2.238 16.32z"/><path clip-path="url(#h)" fill="#A337B3" d="M13.733 60.695L11.5 44.42l.165-.024 2.236 16.3z"/><path clip-path="url(#h)" fill="#A337B4" d="M13.566 60.695l-2.23-16.254.165-.02 2.233 16.275z"/><path clip-path="url(#h)" fill="#A237B5" d="M13.4 60.695l-2.227-16.23.164-.024 2.23 16.255z"/><path clip-path="url(#h)" fill="#A137B6" d="M13.23 60.695l-2.222-16.21.165-.02 2.226 16.23z"/><path clip-path="url(#h)" fill="#A137B7" d="M13.064 60.695l-2.22-16.186.164-.024 2.223 16.21z"/><path clip-path="url(#h)" fill="#A036B8" d="M12.897 60.695L10.68 44.53l.164-.02 2.22 16.185z"/><path clip-path="url(#h)" fill="#A036B9" d="M12.73 60.695l-2.214-16.14.164-.024 2.217 16.165z"/><path clip-path="url(#h)" fill="#9F36BA" d="M12.562 60.695l-2.21-16.12.164-.02 2.214 16.14z"/><path clip-path="url(#h)" fill="#9E36BB" d="M12.395 60.695L10.26 45.122v-.533l.09-.014 2.212 16.12zM12.228 60.695l-1.97-14.354v-1.218l2.137 15.573z"/><path clip-path="url(#h)" fill="#9D36BC" d="M12.06 60.695l-1.8-13.134v-1.22l1.968 14.355z"/><path clip-path="url(#h)" fill="#9D36BD" d="M11.893 60.695L10.26 48.78v-1.22l1.8 13.135z"/><path clip-path="url(#h)" fill="#9C36BE" d="M11.726 60.695L10.26 50v-1.22l1.633 11.915z"/><path clip-path="url(#h)" fill="#9B36BF" d="M11.558 60.695l-1.3-9.474V50l1.468 10.695z"/><path clip-path="url(#h)" fill="#9B36C0" d="M11.39 60.695l-1.13-8.254v-1.22l1.298 9.475z"/><path clip-path="url(#h)" fill="#9A36C1" d="M11.224 60.695l-.965-7.034v-1.22l1.13 8.255z"/><path clip-path="url(#h)" fill="#9A35C2" d="M11.056 60.695l-.797-5.814v-1.22l.964 7.035z"/><path clip-path="url(#h)" fill="#9935C3" d="M10.89 60.695l-.63-4.594v-1.22l.796 5.815z"/><path clip-path="url(#h)" fill="#9935C4" d="M10.722 60.695l-.463-3.375V56.1l.63 4.595z"/><path clip-path="url(#h)" fill="#9835C5" d="M10.554 60.695l-.295-2.155v-1.22l.462 3.375z"/><path clip-path="url(#h)" fill="#9735C6" d="M10.387 60.695l-.128-.935v-1.22l.294 2.155z"/><path clip-path="url(#h)" fill="#9735C7" d="M10.26 59.76l.127.935h-.128z"/><path fill="#fff" d="M47.404 20.32v-9.95h3.705c3.12 0 5.212 2.058 5.212 4.968 0 2.938-2.09 4.982-5.198 4.982h-3.72zm7.125-4.982c0-1.91-1.196-3.43-3.407-3.43H49.15v6.876h1.958c2.166 0 3.42-1.552 3.42-3.446zM58.38 20.32v-9.95h1.746v9.95H58.38zM61.976 18.918l.986-1.357c.672.732 1.763 1.388 3.15 1.388 1.436 0 1.988-.7 1.988-1.373 0-2.09-5.795-.79-5.795-4.445 0-1.656 1.433-2.924 3.63-2.924 1.538 0 2.808.507 3.72 1.403l-.987 1.297c-.792-.79-1.852-1.15-2.898-1.15-1.015 0-1.673.508-1.673 1.24 0 1.864 5.796.715 5.796 4.415 0 1.656-1.18 3.088-3.854 3.088-1.838 0-3.168-.658-4.064-1.582zM71.86 20.32v-9.95h4.393c2.09 0 3.24 1.417 3.24 3.117 0 1.686-1.164 3.103-3.24 3.103h-2.645v3.73H71.86zm5.84-6.832c0-.955-.7-1.58-1.687-1.58h-2.405v3.146h2.405c.987 0 1.688-.626 1.688-1.566zM80.894 15.353c0-2.97 2.106-5.147 5.094-5.147 2.972 0 5.093 2.178 5.093 5.147 0 2.97-2.12 5.147-5.092 5.147-2.988 0-5.094-2.18-5.094-5.147zm8.395 0c0-2.06-1.3-3.595-3.302-3.595-2.017 0-3.302 1.536-3.302 3.595 0 2.043 1.285 3.595 3.302 3.595 2 0 3.3-1.552 3.3-3.595zM100.07 20.32l-5.2-7.116v7.116h-1.746v-9.95h1.793l5.093 6.892V10.37h1.748v9.95h-1.69zM104.248 20.32v-9.95h1.747v9.95h-1.747zM108.487 20.32v-9.95h4.9c1.836 0 2.837 1.133 2.837 2.536 0 1.238-.806 2.09-1.732 2.283 1.075.163 1.927 1.222 1.927 2.43 0 1.552-1.016 2.7-2.9 2.7h-5.033zm5.945-7.13c0-.732-.508-1.283-1.39-1.283h-2.808v2.566h2.81c.88 0 1.388-.523 1.388-1.284zm.194 4.206c0-.745-.522-1.387-1.508-1.387h-2.883v2.774h2.883c.94 0 1.508-.523 1.508-1.388zM118.43 20.32v-9.95h1.748v8.413h4.392v1.536h-6.14zM126.48 20.32v-9.95h6.825v1.536h-5.08v2.566h4.976v1.536h-4.974v2.775h5.08v1.536h-6.827zM139.693 20.32v-9.95h6.826v1.536h-5.08v2.566h4.975v1.536h-4.975v2.775h5.08v1.536h-6.827zM155.626 20.32l-5.198-7.116v7.116h-1.747v-9.95h1.794l5.093 6.892V10.37h1.748v9.95h-1.69z"/></svg>