<svg xmlns="http://www.w3.org/2000/svg" width="131" height="100" viewBox="0 0 131 100"><g fill="#fff"><path d="M32.965 74.844c1.023-1.044 2.324-1.567 3.903-1.567 2.113 0 3.66.7 4.636 2.102.54.786.83 1.575.87 2.367H39.72c-.17-.61-.386-1.068-.65-1.378-.474-.552-1.174-.828-2.102-.828-.945 0-1.69.388-2.236 1.168-.546.778-.82 1.88-.82 3.302s.29 2.49.865 3.2c.576.708 1.31 1.062 2.194 1.062.91 0 1.606-.304 2.083-.913.263-.326.483-.816.658-1.47h2.637c-.228 1.382-.808 2.508-1.743 3.375-.935.866-2.132 1.3-3.592 1.3-1.807 0-3.227-.586-4.26-1.757-1.035-1.177-1.552-2.79-1.552-4.84 0-2.216.588-3.923 1.765-5.124zm18.014 10.22c-.794.978-1.997 1.467-3.61 1.467-1.615 0-2.817-.488-3.61-1.467-.793-.977-1.188-2.155-1.188-3.532 0-1.353.395-2.525 1.188-3.518.793-.992 1.996-1.49 3.61-1.49 1.613 0 2.816.497 3.61 1.49.79.993 1.188 2.165 1.188 3.52 0 1.377-.397 2.555-1.19 3.53zm-1.965-1.356c.384-.51.577-1.236.577-2.176 0-.94-.192-1.664-.577-2.17-.385-.51-.936-.763-1.655-.763-.718 0-1.27.253-1.658.76-.387.508-.582 1.232-.582 2.172 0 .94.194 1.665.582 2.176.388.51.94.766 1.658.766.72 0 1.27-.257 1.655-.766zm11.334-6.345c.615.508.922 1.35.922 2.53v6.32h-2.516v-5.71c0-.495-.065-.873-.196-1.137-.24-.483-.696-.724-1.37-.724-.826 0-1.393.353-1.7 1.06-.16.372-.24.85-.24 1.428v5.082h-2.455v-9.37h2.378v1.37c.315-.48.612-.83.892-1.043.503-.378 1.14-.568 1.914-.568.965 0 1.755.253 2.37.76zm3.962 5.852c.052.436.165.747.34.93.305.33.87.492 1.695.492.485 0 .87-.072 1.156-.215.285-.144.428-.36.428-.647 0-.275-.114-.485-.344-.628-.23-.144-1.086-.39-2.568-.74-1.068-.265-1.82-.596-2.257-.99-.435-.392-.652-.954-.652-1.69 0-.867.34-1.612 1.023-2.234.682-.624 1.643-.936 2.88-.936 1.174 0 2.132.236 2.87.702.74.468 1.165 1.277 1.274 2.424h-2.456c-.034-.315-.123-.565-.268-.75-.27-.332-.73-.5-1.382-.5-.536 0-.917.085-1.144.25-.227.167-.34.362-.34.587 0 .28.12.486.362.612.24.132 1.096.36 2.563.68.977.23 1.71.578 2.198 1.043.482.47.724 1.06.724 1.765 0 .93-.347 1.69-1.04 2.28-.694.587-1.766.88-3.217.88-1.478 0-2.57-.31-3.275-.934-.706-.623-1.057-1.416-1.057-2.38h2.49zm9.208-6.39v5.658c0 .533.063.935.19 1.206.222.475.66.713 1.31.713.835 0 1.406-.338 1.716-1.016.158-.367.24-.853.24-1.456v-5.106h2.488v9.387h-2.386v-1.326c-.023.03-.08.115-.17.26-.093.142-.203.268-.328.377-.384.346-.755.58-1.113.707-.358.126-.778.19-1.258.19-1.387 0-2.32-.5-2.802-1.5-.27-.55-.404-1.364-.404-2.437v-5.658h2.516zm15.2 1.127c.703.89 1.055 2.038 1.055 3.446 0 1.458-.347 2.667-1.04 3.625-.693.96-1.66 1.44-2.9 1.44-.78 0-1.407-.156-1.88-.466-.283-.183-.59-.505-.917-.964v1.18h-2.42V73.535h2.455v4.513c.31-.437.655-.77 1.03-1 .446-.286 1.014-.43 1.7-.43 1.243 0 2.216.445 2.918 1.334zm-2.05 5.72c.353-.51.53-1.184.53-2.016 0-.666-.087-1.218-.262-1.653-.33-.828-.937-1.24-1.824-1.24-.897 0-1.513.404-1.85 1.214-.174.43-.26.988-.26 1.67 0 .805.178 1.47.537 1.998.36.53.907.793 1.644.793.638 0 1.133-.255 1.485-.767zm7.384-3.17c.456-.056.783-.13.98-.215.353-.15.53-.382.53-.698 0-.385-.134-.652-.406-.798-.27-.146-.667-.22-1.19-.22-.59 0-1.006.145-1.25.432-.175.213-.293.5-.35.862h-2.37c.053-.822.284-1.496.693-2.024.653-.828 1.772-1.24 3.358-1.24 1.032 0 1.95.202 2.75.61.803.408 1.203 1.177 1.203 2.308v4.306c0 .3.007.66.02 1.085.017.323.065.54.145.656.08.115.2.208.362.283v.36h-2.67c-.075-.188-.127-.367-.155-.534-.03-.166-.052-.355-.07-.568-.34.368-.733.68-1.177.938-.532.304-1.133.457-1.803.457-.855 0-1.56-.243-2.12-.727-.556-.486-.835-1.173-.835-2.063 0-1.155.448-1.99 1.345-2.507.493-.28 1.215-.482 2.17-.602l.842-.1zm1.5 1.145c-.156.098-.316.177-.474.237-.162.06-.38.117-.66.168l-.56.104c-.524.092-.9.204-1.128.336-.388.223-.58.57-.58 1.042 0 .42.118.72.354.908.236.187.524.28.86.28.538 0 1.032-.155 1.484-.465.452-.31.686-.874.704-1.696v-.913zm11.018-4.284c.615.508.923 1.35.923 2.53v6.32h-2.517v-5.71c0-.495-.065-.873-.196-1.137-.24-.483-.696-.724-1.368-.724-.827 0-1.395.353-1.702 1.06-.16.372-.24.85-.24 1.428v5.082H99.02v-9.37h2.378v1.37c.314-.48.61-.83.892-1.043.503-.378 1.14-.568 1.913-.568.967 0 1.758.253 2.372.76zm7.675 2.83c-.047-.35-.164-.666-.354-.948-.277-.38-.705-.568-1.286-.568-.83 0-1.397.41-1.702 1.23-.16.436-.242 1.015-.242 1.737 0 .686.08 1.24.242 1.658.293.78.846 1.172 1.658 1.172.576 0 .984-.155 1.227-.466.24-.31.387-.712.44-1.205h2.507c-.058.746-.33 1.45-.81 2.118-.77 1.074-1.912 1.612-3.424 1.612s-2.625-.448-3.338-1.344c-.713-.895-1.068-2.057-1.068-3.484 0-1.61.394-2.863 1.182-3.76.786-.894 1.872-1.342 3.257-1.342 1.18 0 2.144.264 2.894.792s1.195 1.46 1.332 2.8h-2.515zm10.88 4.87c-.794.98-1.997 1.468-3.61 1.468-1.614 0-2.818-.488-3.61-1.467-.793-.977-1.19-2.155-1.19-3.532 0-1.353.396-2.525 1.19-3.518.792-.992 1.995-1.49 3.61-1.49 1.613 0 2.815.497 3.61 1.49.792.993 1.188 2.165 1.188 3.52 0 1.377-.396 2.555-1.19 3.53zm-1.965-1.355c.385-.51.577-1.236.577-2.176 0-.94-.193-1.664-.578-2.17-.385-.51-.936-.763-1.654-.763-.72 0-1.27.253-1.66.76-.386.508-.58 1.232-.58 2.172 0 .94.194 1.665.58 2.176.39.51.94.766 1.66.766.718 0 1.27-.257 1.654-.766zM120.83 72.362V66.74h.81l1.845 4.958h.015l1.813-4.96h.804v5.624h-.53V67.35h-.016l-1.842 5.012h-.5l-1.852-5.013h-.016v5.012h-.53zm6.545-2.553v2.552l-.532-.008V66.74h2.204c.62 0 1.093.117 1.42.348.33.23.493.608.493 1.128 0 .354-.072.635-.215.844-.143.21-.376.386-.7.53.167.058.298.14.392.25.092.11.164.235.21.376.046.14.077.29.09.445.014.156.022.308.027.454.005.213.015.39.028.53.012.14.028.256.047.344.017.09.04.157.066.206.025.05.056.088.093.113v.047l-.587.008c-.057-.093-.098-.224-.12-.39-.025-.167-.043-.342-.056-.525-.013-.18-.024-.36-.03-.53-.008-.17-.022-.313-.044-.422-.03-.15-.08-.272-.152-.362-.07-.09-.155-.16-.253-.208-.1-.047-.21-.078-.333-.094-.123-.014-.25-.022-.378-.022h-1.67zm1.656-.454c.2 0 .383-.02.552-.063.17-.04.317-.107.44-.198.127-.092.225-.208.3-.35.07-.14.11-.308.11-.507 0-.21-.04-.38-.115-.515-.076-.136-.178-.242-.305-.32-.128-.08-.274-.133-.437-.165-.164-.03-.334-.047-.512-.047h-1.687v2.164h1.655zM50.016 0C22.393 0 0 22.386 0 50s22.393 50 50.015 50c11.74 0 22.526-4.054 31.058-10.824h-10.23c-6.213 3.308-13.3 5.188-20.828 5.188-18.114 0-33.684-10.857-40.58-26.412 2.6 1.587 5.884 2.406 9.844 2.406 5.893 0 10.424-2.116 13.478-6.272.608.913 1.334 1.766 2.212 2.54 2.803 2.477 7.155 3.732 12.937 3.732 5.667 0 9.938-1.186 12.695-3.525.51-.434.96-.9 1.378-1.38v3.69h10.562V65.92c.86 1.02 1.678 1.776 2.474 2.29 1.907 1.252 4.44 1.884 7.53 1.884 3.15 0 5.874-.795 8.154-2.357-.81 1.86-1.745 3.65-2.793 5.364h6.463c3.61-6.91 5.66-14.764 5.66-23.1 0-27.614-22.392-50-50.015-50zm2.73 61.05c-.993.498-2.375.75-4.112.75-2.942 0-4.956-.56-5.99-1.662-.557-.59-.93-1.658-1.112-3.173l-.068-.585h-5.468c.04-.286.076-.573.1-.86l.054-.716h-10.88l-.06.594c-.184 1.75-.704 3.183-1.543 4.26-.787 1.01-2.184 1.52-4.155 1.52-2.816 0-4.682-1.32-5.706-4.044-.582-1.51-.877-3.556-.877-6.085 0-2.663.296-4.813.88-6.39 1.067-2.87 2.986-4.265 5.87-4.265 2.01 0 3.44.62 4.356 1.875.663.983 1.08 2.103 1.242 3.33l.076.577h6.688c.376 1.84 1.197 3.352 2.472 4.492 1.763 1.6 4.672 2.887 8.898 3.932 6.922 1.636 9.04 2.394 9.6 2.742.684.427 1.004 1.01 1.004 1.835 0 .842-.403 1.437-1.268 1.87zm9.235-10.478c-.05-.05-.09-.102-.14-.15-1.94-1.85-4.868-3.243-8.708-4.144-6.862-1.504-9.01-2.206-9.614-2.537-.7-.364-1.028-.918-1.028-1.742 0-.635.337-1.19 1.03-1.7.748-.545 2.086-.822 3.975-.822 2.26 0 3.86.558 4.75 1.65.468.6.766 1.448.883 2.522l.065.59h8.788v6.334zm0-13.287c-.843-1.46-1.945-2.645-3.328-3.52-2.916-1.844-6.72-2.78-11.306-2.78-4.87 0-8.715 1.257-11.432 3.738-.89.814-1.623 1.69-2.226 2.615-.784-1.238-1.737-2.255-2.86-3.045-2.962-2.086-6.804-3.144-11.418-3.144-4.46 0-8.164 1.22-11.078 3.593C14.555 17.757 30.87 5.636 50.015 5.636c18.848 0 34.94 11.753 41.374 28.323-2.45-1.813-5.443-2.746-8.962-2.746-2.743 0-5.045.59-6.83 1.74-1.033.632-2.012 1.462-2.925 2.482V19.453H61.98v17.832zm23.204 21.123c-1.227 1.774-2.902 2.637-5.12 2.637-2.596 0-4.464-.893-5.714-2.73-1.288-1.895-1.94-4.333-1.94-7.25 0-2.51.32-4.57.944-6.12 1.18-2.84 3.287-4.222 6.444-4.222 3.11 0 5.184 1.41 6.342 4.313.63 1.58.947 3.62.947 6.063 0 3.02-.64 5.48-1.903 7.308z"/></g></svg>